<?xml version="1.0" encoding="UTF-8"?>
<!DOCTYPE svg PUBLIC "-//W3C//DTD SVG 1.1//EN" "http://www.w3.org/Graphics/SVG/1.1/DTD/svg11.dtd">
<!-- Creator: CorelDRAW X8 -->
<svg xmlns="http://www.w3.org/2000/svg" xml:space="preserve" width="190px" height="38px" version="1.1" style="shape-rendering:geometricPrecision; text-rendering:geometricPrecision; image-rendering:optimizeQuality; fill-rule:evenodd; clip-rule:evenodd"
viewBox="0 0 242 48"
 xmlns:xlink="http://www.w3.org/1999/xlink">
 <defs>
  <style type="text/css">
   <![CDATA[
    .fil0 {fill:#EBECEC;fill-rule:nonzero}
    .fil2 {fill:#E3E4E5;fill-rule:nonzero}
    .fil8 {fill:#AAABAB;fill-rule:nonzero}
    .fil5 {fill:#939292;fill-rule:nonzero}
    .fil1 {fill:#D94F00;fill-rule:nonzero}
    .fil11 {fill:url(#id0);fill-rule:nonzero}
    .fil7 {fill:url(#id1);fill-rule:nonzero}
    .fil10 {fill:url(#id2);fill-rule:nonzero}
    .fil15 {fill:url(#id3);fill-rule:nonzero}
    .fil14 {fill:url(#id4);fill-rule:nonzero}
    .fil16 {fill:url(#id5);fill-rule:nonzero}
    .fil9 {fill:url(#id6);fill-rule:nonzero}
    .fil12 {fill:url(#id7);fill-rule:nonzero}
    .fil13 {fill:url(#id8);fill-rule:nonzero}
    .fil3 {fill:url(#id9);fill-rule:nonzero}
    .fil4 {fill:url(#id10);fill-rule:nonzero}
    .fil6 {fill:url(#id11);fill-rule:nonzero}
   ]]>
  </style>
  <linearGradient id="id0" gradientUnits="userSpaceOnUse" x1="24.9612" y1="28.5857" x2="47.8611" y2="34.5436">
   <stop offset="0" style="stop-opacity:1; stop-color:#AAABAB"/>
   <stop offset="0.101961" style="stop-opacity:1; stop-color:#AAABAB"/>
   <stop offset="1" style="stop-opacity:1; stop-color:#4E4E4E"/>
  </linearGradient>
  <linearGradient id="id1" gradientUnits="userSpaceOnUse" x1="44.2573" y1="44.8493" x2="45.3934" y2="41.9639">
   <stop offset="0" style="stop-opacity:1; stop-color:#E4E4E4"/>
   <stop offset="1" style="stop-opacity:1; stop-color:#A2A2A2"/>
  </linearGradient>
  <linearGradient id="id2" gradientUnits="userSpaceOnUse" xlink:href="#id0" x1="24.9609" y1="19.6897" x2="47.8613" y2="13.7319">
  </linearGradient>
  <linearGradient id="id3" gradientUnits="userSpaceOnUse" x1="46.9727" y1="36.2496" x2="29.4624" y2="36.2496">
   <stop offset="0" style="stop-opacity:1; stop-color:#FEFEFE"/>
   <stop offset="0.231373" style="stop-opacity:1; stop-color:#FEFEFE"/>
   <stop offset="1" style="stop-opacity:1; stop-color:#B0B0B0"/>
  </linearGradient>
  <linearGradient id="id4" gradientUnits="userSpaceOnUse" xlink:href="#id3" x1="46.9727" y1="12.0261" x2="29.4624" y2="12.0261">
  </linearGradient>
  <linearGradient id="id5" gradientUnits="userSpaceOnUse" xlink:href="#id3" x1="-0.000140551" y1="36.2496" x2="17.5102" y2="36.2496">
  </linearGradient>
  <linearGradient id="id6" gradientUnits="userSpaceOnUse" xlink:href="#id0" x1="22.0116" y1="19.69" x2="-0.888139" y2="13.7318">
  </linearGradient>
  <linearGradient id="id7" gradientUnits="userSpaceOnUse" xlink:href="#id0" x1="22.0115" y1="28.5856" x2="-0.887999" y2="34.5437">
  </linearGradient>
  <linearGradient id="id8" gradientUnits="userSpaceOnUse" xlink:href="#id3" x1="-0.000140551" y1="12.0261" x2="17.5102" y2="12.0261">
  </linearGradient>
  <linearGradient id="id9" gradientUnits="userSpaceOnUse" xlink:href="#id1" x1="44.7551" y1="3.15592" x2="45.5773" y2="6.05183">
  </linearGradient>
  <linearGradient id="id10" gradientUnits="userSpaceOnUse" xlink:href="#id1" x1="2.71558" y1="3.42634" x2="1.57937" y2="6.31185">
  </linearGradient>
  <linearGradient id="id11" gradientUnits="userSpaceOnUse" xlink:href="#id1" x1="2.21789" y1="45.1196" x2="1.39539" y2="42.2242">
  </linearGradient>
 </defs>
 <g id="Layer_x0020_1">
  <metadata id="CorelCorpID_0Corel-Layer"/>
  <g id="_1896508029824">
   <path class="fil0" d="M84 3l-20 0c-3,0 -5,2 -5,5l0 35 0 2 1 0 21 0c3,0 5,-2 5,-5l0 -35 0 -2 -2 0zm45 0l0 0 21 0 2 0 0 2 0 35c0,4 -4,5 -8,5 -1,0 -1,0 -2,0 -1,0 -1,0 -1,0l0 -2 0 -2c0,0 0,0 1,1 1,0 1,0 2,0 2,0 4,-1 4,-2l0 -33 -18 0 -1 0 0 0 0 0 0 0 0 0 0 0 0 0 0 0 0 0 0 0 0 0 0 0 0 0 0 0 0 0 0 0 0 0 0 0 0 0 0 0 0 0 0 0 0 0 0 0 0 0 0 0 0 0 0 0 0 0 0 0 0 0 0 0 0 0 0 0 0 0 0 0 0 0 0 0 0 0 0 0 0 0 0 0 0 0 0 0 0 0 0 0 0 0 0 0 0 0 0 0 0 0 0 0 0 0 0 0 0 0 0 0 0 0 0 0 0 0 0 0 0 0 0 0 0 0 0 0 0 0 0 0 0 0 0 0 0 0 0 0 0 0 0 0 0 0 0 0 0 0 0 0 0 0 0 0 0 0 0 0 0 0 -1 0 0 0 0 0 0 0 0 0 0 0 0 0 0 0 0 0 0 0 0 0 0 0 0 0 0 0 0 0 0 0 0 0 0 0 0 0 0 0 0 0 0 0 0 0 0 0 0 0 0 0 0 0 0 0 0 0 0 0 0 0 0 0 0 0 0 0 0 0 0 0 0 0 0 0 0 0 0 0 0 0c0,1 0,1 0,2l0 34 0 0 0 2 -2 0 -2 0 0 -2 0 -34c0,-2 1,-3 2,-4 1,-1 2,-2 3,-2zm-13 0l0 0 -19 0c-3,0 -5,2 -5,5l0 18 0 2 0 0 0 17 4 0 0 -17 17 0c3,0 5,-2 5,-5l0 -18 0 -2 -2 0zm-19 4l0 0 17 0 0 16c0,0 0,0 0,0l0 0 0 0 0 0 0 0 0 0 0 1 0 0 0 0 0 0 0 0 0 0 0 0 0 0 0 0 0 0 0 0 0 0 0 0 0 0 0 0 0 0 0 0 0 0 0 0 0 0 0 0 0 0 0 0 0 0 0 0 0 0 0 0 0 0 0 0 0 0 0 0 0 0 0 0 0 0 0 0 0 0 0 0 0 0 0 0 0 0 0 0 0 0 0 0 0 0 0 0 0 0 0 0 0 0 0 0 0 0 0 0 0 0 0 0 0 0 0 0 0 0 0 0 0 0 0 1 0 0 0 0 0 0c-1,0 -1,0 -1,0l0 0 0 0 0 0 0 0 0 0 0 0 0 0 0 0c0,0 0,0 0,0l-17 0 0 -17c0,0 0,0 0,0l0 0 0 0 0 0 0 0 0 0 0 0 0 0 0 0 0 0 0 0 0 0 0 0 0 0 0 0 0 0 0 0 0 0 0 0 0 0 0 0 0 -1 0 0 0 0 0 0 0 0 0 0 0 0 0 0 0 0 0 0 0 0 0 0 0 0 0 0 0 0 0 0 0 0 0 0 0 0 0 0 0 0 0 0 0 0 0 0 0 0 0 0 0 0 0 0 0 0 0 0 0 0 0 0 0 0 0 0 0 0 0 0 0 0 0 0 0 0 0 0 1 0 0 0 0 0 0 0 0 0 0 0 0 0 0 0 0 0 0 0 0 0 0 0 0 0 0 0 0 0c0,0 0,0 0,0zm17 16l0 0 0 0 0 0zm0 0l0 0 0 0 0 0zm0 0l0 0 0 0 0 0zm0 1l0 0 0 0 0 0zm0 0l0 0 0 0 0 0zm0 0l0 0 0 0 0 0zm0 0l0 0 0 0 0 0zm0 0l0 0 0 0 0 0zm0 0l0 0 0 0 0 0zm0 0l0 0 0 0 0 0zm0 0l0 0 0 0 0 0zm0 0l0 0 0 0 0 0zm0 0l0 0 0 0 0 0zm0 0l0 0 0 0 0 0zm0 0l0 0 0 0 0 0zm0 0l0 0 0 0 0 0zm0 0l0 0 0 0 0 0zm0 0l0 0 0 0 0 0zm0 0l0 0 0 0 0 0zm0 0l0 0 0 0 0 0zm0 0l0 0 0 0 0 0zm0 0l0 0 0 0 0 0zm0 0l0 0 0 0 0 0zm0 0l0 0 0 0 0 0zm0 0l0 0 0 0 0 0zm0 0l0 0 0 0 0 0zm0 0l0 0 0 0 0 0zm0 1l0 0 0 0 0 0zm-1 0l0 0 0 0 0 0zm0 0l0 0 0 0 0 0zm0 0l0 0 0 0 0 0zm-17 -17l0 0 0 0 0 0 0 0 0 0zm0 0l0 0 0 0 0 0zm0 0l0 0 0 0 0 0zm0 0l0 0 0 0 0 0zm0 0l0 0 0 0 0 0zm0 -1l0 0 0 0 0 0zm0 0l0 0 0 0 0 0zm0 0l0 0 0 0 0 0zm0 0l0 0 0 0 0 0zm0 0l0 0 0 0 0 0zm0 0l0 0 0 0 0 0zm0 0l0 0 0 0 0 0zm0 0l0 0 0 0 0 0zm0 0l0 0 0 0 0 0zm0 0l0 0 0 0 0 0zm0 0l0 0 0 0 0 0zm0 0l0 0 0 0 0 0zm0 0l0 0 0 0 0 0zm0 0l0 0 0 0 0 0zm0 0l0 0 0 0 0 0zm0 0l0 0 0 0 0 0zm1 0l0 0 0 0 0 0zm0 0l0 0 0 0 0 0zm0 0l0 0 0 0 0 0zm0 0l0 0 0 0 0 0zm0 0l0 0 0 0 0 0zm0 0l0 0 -33 0 18 0 0 33c0,0 0,0 0,0l0 0 0 0 0 0 0 0 0 0 0 0 0 0 0 0 0 0 0 0 0 0 0 0 0 0 0 0 0 1 0 0 0 0 0 0 0 0 0 0 0 0 0 0 0 0 0 0 0 0 0 0 0 0 0 0 0 0 0 0 0 0 0 0 0 0 0 0 0 0 0 0 0 0 0 0 0 0 0 0 0 0 0 0 0 0 0 0 0 0 0 0 0 0 0 0 0 0 0 0 0 0 0 0 -1 0 0 0 0 0 0 0 0 0 0 0 0 0 0 0 0 0 0 0c0,0 0,0 0,0l-19 0 0 -33c0,0 0,0 0,0l0 0 0 0 0 0 0 0 0 0 0 0 0 0 0 0 0 0 0 0 0 0 0 0 1 0 0 0 0 0 0 0 0 -1 0 0 0 0 0 0 0 0 0 0 0 0 0 0 0 0 0 0 0 0 0 0 0 0 0 0 0 0 0 0 0 0 0 0 0 0 0 0 0 0 0 0 0 0 0 0 0 0 0 0 0 0 0 0 0 0 0 0 0 0 0 0 0 0 0 0 0 0 0 0 0 0 0 0 0 0 0 0 0 0 1 0 0 0 0 0 0 0 0 0 0 0c0,0 0,0 0,0l33 0zm-15 33l0 0 0 0 0 0zm0 0l0 0 0 0 0 0zm0 0l0 0 0 0 0 0zm0 0l0 0 0 0 0 0zm0 0l0 0 0 0 0 0zm0 1l0 0 0 0 0 0zm0 0l0 0 0 0 0 0zm0 0l0 0 0 0 0 0zm0 0l0 0 0 0 0 0zm0 0l0 0 0 0 0 0zm0 0l0 0 0 0 0 0zm0 0l0 0 0 0 0 0zm0 0l0 0 0 0 0 0zm0 0l0 0 0 0 0 0zm0 0l0 0 0 0 0 0zm0 0l0 0 0 0 0 0zm0 0l0 0 0 0 0 0zm0 0l0 0 0 0 0 0zm0 0l0 0 0 0 0 0zm0 0l0 0 0 0 0 0zm0 0l0 0 0 0 0 0zm-1 0l0 0 0 0 0 0 0 0 0 0zm-19 -33l0 0 0 0 0 0zm0 0l0 0 0 0 0 0zm0 0l0 0 0 0 0 0zm0 0l0 0 0 0 0 0zm1 0l0 0 0 0 0 0zm0 0l0 0 0 0 0 0zm0 -1l0 0 0 0 0 0zm0 0l0 0 0 0 0 0zm0 0l0 0 0 0 0 0zm0 0l0 0 0 0 0 0zm0 0l0 0 0 0 0 0zm0 0l0 0 0 0 0 0zm0 0l0 0 0 0 0 0zm0 0l0 0 0 0 0 0zm0 0l0 0 0 0 0 0zm0 0l0 0 0 0 0 0zm0 0l0 0 0 0 0 0zm0 0l0 0 0 0 0 0zm0 0l0 0 0 0 0 0zm0 0l0 0 0 0 0 0zm0 0l0 0 0 0 0 0zm0 0l0 0 0 0 0 0zm1 0l0 0 0 0 0 0z"/>
  </g>
  <g id="_1896508032384">
   <path class="fil0" d="M238 16c1,0 1,0 2,0 0,0 1,1 1,1 0,1 1,1 1,2 0,1 -1,1 -1,2 0,0 -1,1 -1,1 -1,0 -1,0 -2,0 0,0 -1,0 -1,0 -1,0 -1,-1 -2,-1 0,-1 0,-1 0,-2 0,-1 0,-1 0,-2 1,0 1,-1 2,-1 0,0 1,0 1,0zm0 0l0 0c0,0 -1,0 -1,1 -1,0 -1,0 -1,1 0,0 -1,1 -1,1 0,0 1,1 1,1 0,1 0,1 1,1 0,1 1,1 1,1 1,0 1,0 2,-1 0,0 0,0 1,-1 0,0 0,-1 0,-1 0,0 0,-1 0,-1 -1,-1 -1,-1 -1,-1 -1,-1 -1,-1 -2,-1z"/>
   <path class="fil0" d="M240 20c-1,0 -1,0 -1,-1 0,0 0,0 0,0 0,0 0,0 0,0 1,0 1,-1 1,-1 0,0 0,0 0,0 -1,0 -1,-1 -1,-1 0,0 0,0 -1,0l-1 0 0 4 1 0 0 -2 0 0c0,0 0,0 0,0 1,1 1,1 1,1 0,0 0,1 0,1l1 0c0,0 0,-1 0,-1zm-2 -1l0 0 0 0 0 -1 0 0c1,0 1,0 1,0 0,0 0,0 0,0 0,0 0,0 0,0 0,0 0,1 0,1 0,0 0,0 -1,0z"/>
  </g>
  <path class="fil1" d="M169 30l-6 0 0 -1c0,-1 0,-2 0,-2 0,0 0,-1 -1,-1 0,0 0,1 0,1 -1,0 -1,0 -1,1 0,1 0,1 0,1 0,1 1,1 1,1 1,1 2,1 3,2 2,1 3,2 4,3 0,1 1,2 1,3 0,2 0,4 -1,4 0,1 -1,2 -2,3 -1,0 -3,0 -4,0 -2,0 -3,0 -4,0 -2,-1 -3,-2 -3,-3 0,-1 -1,-2 -1,-4l0 -1 6 0 0 2c0,1 0,2 0,2 1,0 1,0 1,0 1,0 1,0 1,0 1,0 1,-1 1,-1 0,-1 0,-2 -1,-2 0,-1 -1,-1 -4,-3 -2,-1 -3,-2 -3,-3 -1,-1 -1,-2 -1,-3 0,-2 0,-3 1,-4 0,-1 1,-1 2,-2 1,0 3,0 4,0 2,0 3,0 4,0 1,1 2,1 2,2 1,0 1,1 1,1 0,1 0,2 0,3l0 1zm18 4l0 0 -9 0 0 5c0,1 0,2 0,2 0,0 1,0 1,0 1,0 1,0 1,0 0,-1 0,-1 0,-2l0 -3 7 0 0 1c0,2 0,3 -1,3 0,1 0,2 -1,3 0,1 -1,1 -2,2 -1,0 -2,0 -4,0 -1,0 -2,0 -4,0 -1,-1 -1,-1 -2,-2 -1,-1 -1,-1 -1,-2 -1,-1 -1,-2 -1,-4l0 -6c0,-2 1,-4 1,-5 1,-1 1,-2 3,-3 1,0 2,0 4,0 2,0 3,0 4,1 2,0 2,1 3,2 0,2 1,3 1,5l0 3zm-7 -3l0 0 0 -2c0,-1 0,-2 0,-2 0,0 -1,-1 -1,-1 0,0 -1,1 -1,1 0,0 0,1 0,2l0 2 2 0zm16 -8l0 0 -1 2c1,-1 1,-1 2,-2 1,0 2,0 3,0 1,0 2,0 2,0 1,1 2,2 2,2 0,1 0,3 0,5l0 15 -6 0 0 -15c0,-2 -1,-3 -1,-3 0,0 0,-1 0,-1 -1,0 -1,1 -1,1 0,0 -1,1 -1,3l0 15 -6 0 0 -22 7 0zm24 7l0 0 -6 0 0 -1c0,-1 0,-2 0,-2 0,0 0,-1 -1,-1 0,0 -1,1 -1,1 0,0 0,0 0,1 0,1 0,1 0,1 0,1 1,1 1,1 0,1 1,1 3,2 2,1 3,2 4,3 0,1 1,2 1,3 0,2 -1,4 -1,4 -1,1 -1,2 -2,3 -2,0 -3,0 -4,0 -2,0 -4,0 -5,0 -1,-1 -2,-2 -2,-3 -1,-1 -1,-2 -1,-4l0 -1 6 0 0 2c0,1 0,2 0,2 0,0 1,0 1,0 1,0 1,0 1,0 0,0 0,-1 0,-1 0,-1 0,-2 0,-2 0,-1 -1,-1 -4,-3 -2,-1 -3,-2 -3,-3 -1,-1 -1,-2 -1,-3 0,-2 0,-3 1,-4 0,-1 1,-1 2,-2 1,0 2,0 4,0 1,0 3,0 4,0 1,1 1,1 2,2 0,0 1,1 1,1 0,1 0,2 0,3l0 1zm17 4l0 0 -8 0 0 5c0,1 0,2 0,2 0,0 0,0 1,0 0,0 1,0 1,0 0,-1 0,-1 0,-2l0 -3 6 0 0 1c0,2 0,3 0,3 0,1 0,2 -1,3 -1,1 -1,1 -2,2 -1,0 -3,0 -4,0 -1,0 -3,0 -4,0 -1,-1 -2,-1 -2,-2 -1,-1 -1,-1 -2,-2 0,-1 0,-2 0,-4l0 -6c0,-2 0,-4 1,-5 0,-1 1,-2 2,-3 2,0 3,0 5,0 1,0 3,0 4,1 1,0 2,1 3,2 0,2 0,3 0,5l0 3zm-6 -3l0 0 0 -2c0,-1 0,-2 0,-2 -1,0 -1,-1 -1,-1 -1,0 -1,1 -1,1 0,0 0,1 0,2l0 2 2 0z"/>
  <path class="fil2" d="M47 4l-4 0 0 0 -38 0c0,0 0,0 0,0l0 0 0 0 0 0 0 0 0 0 0 0 0 0 -1 0 0 0 0 0 0 0 0 0 0 0 0 0 0 0 0 0 0 0 0 0 0 0 0 0 0 0 0 0 0 0 0 0 0 0 0 0 0 0 0 0 0 0 0 0 0 0 0 0 0 0 0 0 0 0 0 0 0 0 0 0 0 0 0 0 0 0 0 0 0 0 0 0 -4 0 0 0c1,-2 3,-4 5,-4l0 0 42 0 0 4 0 0 0 0z"/>
  <polygon class="fil3" points="43,4 47,2 47,4 47,4 47,5 43,7 43,7 "/>
  <path class="fil4" d="M1 2l3 2 0 0 0 0 0 0 0 0 0 0 0 0 0 0 0 0 0 0 0 0 0 0 0 0 0 0 0 0 0 0 0 0 0 0 0 0 0 0 0 0 0 0 0 0 0 0 0 0 0 0 0 0 0 1 0 0 0 0 0 0 0 0 0 0 0 0 0 0 0 0 0 0 0 0 0 0 0 0 0 0c0,0 0,0 0,0l0 0 0 2 -4 -2 0 0c0,-1 0,-2 1,-3z"/>
  <polygon class="fil5" points="40,11 7,11 7,7 40,7 "/>
  <path class="fil2" d="M0 44l4 0 0 1 38 0 0 0c0,0 0,0 0,0l0 0 0 0 0 0 0 -1 0 0 0 0 0 0 0 0 0 0 1 0 0 0 0 0 0 0 0 0 0 0 0 0 0 0 0 0 0 0 0 0 0 0 0 0 0 0 0 0 0 0 0 0 0 0 0 0 0 0 0 0 0 0 0 0 0 0 0 0 0 0 0 0 0 0 0 0 0 0 0 0 0 0 0 0 0 0 0 0 4 0 0 0c-1,2 -3,4 -5,4l0 0 -42 0 0 -3 0 0 0 -1z"/>
  <polygon class="fil6" points="4,45 0,46 0,45 0,45 0,43 4,41 4,41 "/>
  <path class="fil7" d="M46 46l-3 -2 0 0 0 0 0 0 0 0 0 0 0 0 0 0 0 0 0 0 0 0 0 0 0 0 0 0 0 0 0 0 0 0 0 0 0 0 0 0 0 0 0 0 0 0 0 0 0 0 0 0 0 0 0 0 0 0 0 0 0 0 0 0 0 0 0 0 0 0 0 -1 0 0 0 0 0 0 0 0 0 0c0,0 0,0 0,0l0 0 0 -2 4 2 0 0c0,1 0,2 -1,3z"/>
  <polygon class="fil8" points="18,19 4,19 4,15 18,15 "/>
  <polygon class="fil9" points="10,19 4,15 4,15 11,15 18,19 18,19 "/>
  <polygon class="fil8" points="29,19 43,19 43,15 29,15 "/>
  <polygon class="fil10" points="36,19 43,15 43,15 36,15 29,19 29,19 "/>
  <polygon class="fil8" points="29,30 43,30 43,33 29,33 "/>
  <polygon class="fil11" points="36,30 43,33 43,33 36,33 29,30 29,30 "/>
  <polygon class="fil8" points="18,30 4,30 4,33 18,33 "/>
  <polygon class="fil12" points="10,30 4,33 4,33 11,33 18,30 18,30 "/>
  <polygon class="fil13" points="18,19 0,9 0,5 18,15 "/>
  <polygon class="fil14" points="29,19 47,9 47,5 29,15 "/>
  <polygon class="fil5" points="40,41 7,41 7,37 40,37 "/>
  <polygon class="fil15" points="29,30 47,39 47,43 29,33 "/>
  <polygon class="fil16" points="18,30 0,39 0,43 18,33 "/>
  <polygon class="fil1" points="47,22 36,22 40,20 40,17 29,22 29,22 29,22 29,26 29,26 29,26 29,26 40,31 40,28 36,26 47,26 "/>
  <polygon class="fil1" points="7,17 7,20 11,22 0,22 0,26 11,26 7,28 7,31 18,26 18,26 18,26 18,26 18,22 18,22 18,22 "/>
 </g>
</svg>
