<?xml version="1.0" encoding="UTF-8"?>
<!DOCTYPE svg PUBLIC "-//W3C//DTD SVG 1.1//EN" "http://www.w3.org/Graphics/SVG/1.1/DTD/svg11.dtd">
<!-- Creator: CorelDRAW X8 -->
<svg xmlns="http://www.w3.org/2000/svg" xml:space="preserve" width="171.889mm" height="34.3477mm" version="1.1" style="shape-rendering:geometricPrecision; text-rendering:geometricPrecision; image-rendering:optimizeQuality; fill-rule:evenodd; clip-rule:evenodd"
viewBox="0 0 21856 4367"
 xmlns:xlink="http://www.w3.org/1999/xlink">
 <defs>
  <style type="text/css">
   <![CDATA[
    .fil0 {fill:#EBECEC;fill-rule:nonzero}
    .fil2 {fill:#E3E4E5;fill-rule:nonzero}
    .fil8 {fill:#AAABAB;fill-rule:nonzero}
    .fil5 {fill:#939292;fill-rule:nonzero}
    .fil1 {fill:#D94F00;fill-rule:nonzero}
    .fil11 {fill:url(#id0);fill-rule:nonzero}
    .fil7 {fill:url(#id1);fill-rule:nonzero}
    .fil10 {fill:url(#id2);fill-rule:nonzero}
    .fil15 {fill:url(#id3);fill-rule:nonzero}
    .fil14 {fill:url(#id4);fill-rule:nonzero}
    .fil16 {fill:url(#id5);fill-rule:nonzero}
    .fil9 {fill:url(#id6);fill-rule:nonzero}
    .fil12 {fill:url(#id7);fill-rule:nonzero}
    .fil13 {fill:url(#id8);fill-rule:nonzero}
    .fil3 {fill:url(#id9);fill-rule:nonzero}
    .fil4 {fill:url(#id10);fill-rule:nonzero}
    .fil6 {fill:url(#id11);fill-rule:nonzero}
   ]]>
  </style>
  <linearGradient id="id0" gradientUnits="userSpaceOnUse" x1="2258.18" y1="2586.09" x2="4329.89" y2="3125.08">
   <stop offset="0" style="stop-opacity:1; stop-color:#AAABAB"/>
   <stop offset="0.101961" style="stop-opacity:1; stop-color:#AAABAB"/>
   <stop offset="1" style="stop-opacity:1; stop-color:#4E4E4E"/>
  </linearGradient>
  <linearGradient id="id1" gradientUnits="userSpaceOnUse" x1="4003.85" y1="4057.41" x2="4106.63" y2="3796.38">
   <stop offset="0" style="stop-opacity:1; stop-color:#E4E4E4"/>
   <stop offset="1" style="stop-opacity:1; stop-color:#A2A2A2"/>
  </linearGradient>
  <linearGradient id="id2" gradientUnits="userSpaceOnUse" xlink:href="#id0" x1="2258.16" y1="1781.29" x2="4329.9" y2="1242.3">
  </linearGradient>
  <linearGradient id="id3" gradientUnits="userSpaceOnUse" x1="4249.51" y1="3279.41" x2="2665.39" y2="3279.41">
   <stop offset="0" style="stop-opacity:1; stop-color:#FEFEFE"/>
   <stop offset="0.231373" style="stop-opacity:1; stop-color:#FEFEFE"/>
   <stop offset="1" style="stop-opacity:1; stop-color:#B0B0B0"/>
  </linearGradient>
  <linearGradient id="id4" gradientUnits="userSpaceOnUse" xlink:href="#id3" x1="4249.51" y1="1087.97" x2="2665.39" y2="1087.97">
  </linearGradient>
  <linearGradient id="id5" gradientUnits="userSpaceOnUse" xlink:href="#id3" x1="-0.0127153" y1="3279.41" x2="1584.11" y2="3279.41">
  </linearGradient>
  <linearGradient id="id6" gradientUnits="userSpaceOnUse" xlink:href="#id0" x1="1991.34" y1="1781.31" x2="-80.3479" y2="1242.28">
  </linearGradient>
  <linearGradient id="id7" gradientUnits="userSpaceOnUse" xlink:href="#id0" x1="1991.33" y1="2586.07" x2="-80.3352" y2="3125.09">
  </linearGradient>
  <linearGradient id="id8" gradientUnits="userSpaceOnUse" xlink:href="#id3" x1="-0.0127153" y1="1087.97" x2="1584.11" y2="1087.97">
  </linearGradient>
  <linearGradient id="id9" gradientUnits="userSpaceOnUse" xlink:href="#id1" x1="4048.89" y1="285.509" x2="4123.28" y2="547.495">
  </linearGradient>
  <linearGradient id="id10" gradientUnits="userSpaceOnUse" xlink:href="#id1" x1="245.672" y1="309.973" x2="142.882" y2="571.018">
  </linearGradient>
  <linearGradient id="id11" gradientUnits="userSpaceOnUse" xlink:href="#id1" x1="200.647" y1="4081.86" x2="126.237" y2="3819.93">
  </linearGradient>
 </defs>
 <g id="Layer_x0020_1">
  <metadata id="CorelCorpID_0Corel-Layer"/>
  <g id="_1932602954816">
   <path class="fil0" d="M7629 276l-1838 0c-270,0 -491,221 -491,491l0 3135 0 166 166 0 1838 0c270,0 491,-220 491,-490l0 -3136 0 -166 -166 0zm4077 14l0 0 1838 0 165 0 0 166 0 3135c0,432 -348,500 -681,500 -56,0 -125,-3 -189,-6 -42,-2 -80,-4 -126,-4l0 -165 0 -166c32,0 84,3 140,5 50,3 105,5 175,5 171,0 350,-23 350,-169l0 -2970 -1590 0 -82 0 -6 0 0 0 -2 0 0 0 -2 1 -1 0 -1 0 0 0 -2 0 -1 0 -1 0 -1 0 -1 0 -1 0 -1 0 0 0 -2 1 0 0 -2 0 0 0 -1 0 -1 0 -1 0 -1 1 -1 0 -1 0 -1 0 -1 0 -1 1 -1 0 -1 0 -1 0 -1 0 -1 1 0 0 -2 0 0 0 -2 1 0 0 -2 0 0 0 -2 1 -1 0 0 0 -2 1 0 0 -2 0 0 1 -2 0 0 0 -1 1 -1 0 -1 0 -1 1 -1 0 0 0 -1 1 -1 0 -1 0 -1 1 -1 0 -1 1 -1 0 0 0 -1 1 -1 0 -1 0 -1 1 0 0 -2 1 0 0 -3 2 0 0 -2 0 0 1 -1 0 -1 1 -1 0 0 0 -2 1 -1 1 0 0 -2 1 0 0 -1 1 -1 0 -1 1 0 0 -2 1 0 0 -1 1 -2 1 0 1 -1 0 -1 1 -1 0 0 1 -1 1 -1 0 0 1 -1 0 -1 1 -1 0 0 1 -1 1 -1 0 -1 1 0 0 -1 1 0 0 -1 1 -1 1 -1 1 0 0 -1 1 0 0 -2 1 0 0 -1 2 0 0 -1 1c-29,29 -47,68 -47,112l0 3136 -3 0 0 165 -163 0 -165 0 0 -165 0 -3136c0,-135 55,-258 143,-346 89,-89 212,-144 347,-144zm-1190 -9l0 0 -1741 0c-252,0 -458,206 -458,458l0 1655 0 166 0 0 0 1502 333 0 0 -1502 1574 0c253,0 458,-206 458,-458l0 -1655 0 -166 -166 0zm-1741 333l0 0 1575 0 0 1488c0,6 -1,12 -2,18l0 0 0 4 0 0 -1 2 0 0 0 2 0 1 -1 0 0 2 0 1 -1 4 0 1 -1 1 0 2 -1 1 0 1 -1 3 0 0 -1 3 0 0 -1 3 -1 0 -1 3 0 0 -1 2 1 -1 -3 4 0 1 -1 2 0 1 -1 0 0 1 -2 4 -1 0 0 1 -1 0 -1 2 0 1 -1 1 0 1 -2 2 -2 3 -1 1 -3 3 0 1 -5 5 -6 5 -2 3 -6 5 -1 0 0 1 -4 2 0 0 -1 1 -1 1 -4 2 -1 1 -1 0 0 0 -3 2 0 0 -6 3 0 0 -5 2 0 0 -3 2 0 0c-3,1 -7,3 -12,4l-3 1 0 0 -4 1 -2 0 -3 1 0 0 -4 0 0 0c-6,1 -12,1 -18,1l-1575 0 0 -1488c0,-6 1,-12 2,-18l0 -3 0 0 1 -3 1 -3 0 0 0 -3 0 -1 1 -3 3 -8 0 0 0 1 0 -1 1 -4 0 1 2 -4 0 0 2 -4 0 0 3 -6 0 -1 2 -3 0 0 0 0 1 -1 2 -4 1 -1 1 -2 0 0 2 -3 3 -3 3 -4 0 -1 3 -2 0 0 5 -6 5 -5 1 0 3 -3 1 0 3 -2 0 -1 3 -1 1 -1 3 -2 0 0 1 -1 0 0 4 -3 1 0 0 0 1 0 2 -2 1 0 4 -2 -1 0 2 -1 0 0 3 -1 0 0 3 -1 3 -1 4 -2 -1 1 5 -2 5 -1 1 -1 2 0 0 0 1 0 0 0 2 -1 0 0 2 0 0 0 4 -1c6,-1 12,-1 18,-1zm1573 1506l0 0 0 0 0 0zm0 4l0 0 0 0 0 0zm-1 2l0 0 0 0 0 0zm0 3l0 0 -1 0 1 0zm-1 2l0 0 0 1 0 -1zm-1 5l0 0 0 1 0 -1zm-1 2l0 0 0 2 0 -2zm-1 3l0 0 0 1 0 -1zm-1 4l0 0 0 0 0 0zm-1 3l0 0 0 0 0 0zm-1 3l0 0 -1 0 1 0zm-2 3l0 0 0 0 0 0zm-3 5l0 0 0 1 0 -1zm-1 3l0 0 0 1 0 -1zm-1 1l0 0 0 1 0 -1zm-2 5l0 0 -1 0 1 0zm-1 1l0 0 -1 0 1 0zm-2 2l0 0 0 1 0 -1zm-1 2l0 0 0 1 0 -1zm-4 6l0 0 -1 1 1 -1zm-4 4l0 0 0 1 0 -1zm-20 19l0 0 0 1 0 -1zm-4 3l0 0 0 0 0 0zm-1 1l0 0 -1 1 1 -1zm-5 3l0 0 -1 1 1 -1zm-2 1l0 0 0 0 0 0zm-3 2l0 0 0 0 0 0zm-11 5l0 0 0 0 0 0zm-18 7l0 0 0 0 0 0zm-9 2l0 0 0 0 0 0zm-4 0l0 0 0 0 0 0zm-1591 -1505l0 0 0 -3 0 0 0 0 0 3zm2 -9l0 0 0 0 0 0zm0 -3l0 0 0 -1 0 1zm7 -19l0 0 0 0 0 0zm5 -10l0 0 0 -1 0 1zm2 -4l0 0 0 0 0 0zm0 0l0 0 1 -1 -1 1zm3 -5l0 0 1 -1 -1 1zm2 -3l0 0 0 0 0 0zm8 -10l0 0 0 -1 0 1zm3 -3l0 0 0 0 0 0zm10 -11l0 0 1 0 -1 0zm4 -3l0 0 1 0 -1 0zm4 -2l0 0 0 -1 0 1zm7 -5l0 0 0 0 0 0zm1 -1l0 0 0 0 0 0zm4 -3l0 0 1 0 -1 0zm1 0l0 0 1 0 -1 0zm3 -2l0 0 1 0 -1 0zm6 -3l0 0 0 0 0 0zm3 -1l0 0 0 0 0 0zm19 -6l0 0 1 -1 -1 1zm3 -1l0 0 0 0 0 0zm1 0l0 0 0 0 0 0zm2 -1l0 0 0 0 0 0zm2 0l0 0 0 0 0 0zm4 -1l0 0 -2966 -7 1672 0 0 2970c0,13 -5,40 -5,40l-6 18 0 0 0 -1 0 1 -1 1 0 1 -1 3 0 0 -1 3 -1 0 -6 13 0 0 -2 3 0 0 -4 6 0 0 -4 5 0 0 -2 3 0 0 -2 3 0 0 -1 1 0 0 -2 3 0 0 -2 2 -2 2 -1 1 -1 1 0 0 -5 5 0 0 -2 2 0 0 -2 2 -3 2 0 0 -2 2 -1 1 -1 1 0 0 -3 2 0 0 -2 2 -1 0 -5 4 0 0 -5 3 0 0 -3 2 -1 0 -12 7 -4 1 -2 2 -2 0 -18 6 -1 0 1 0 0 0 -1 0 0 1c-14,3 -25,5 -40,5l-1672 0 0 -2970c0,-13 5,-40 5,-40l6 -18 0 0 0 1 0 -1 1 -2 0 -1 1 -2 0 0 1 -3 1 -1 6 -12 0 0 2 -4 0 0 4 -5 0 0 4 -5 0 -1 2 -2 0 0 2 -3 0 0 1 -1 0 -1 2 -2 0 0 2 -2 2 -3 1 0 1 -2 0 0 5 -5 0 0 2 -1 0 -1 2 -1 3 -3 0 0 2 -2 1 0 1 -1 0 0 3 -2 0 0 2 -2 1 0 5 -4 0 0 5 -4 0 0 4 -2 0 0 12 -6 4 -2 0 0 2 -1 3 -1 18 -6 0 0 -1 0 1 0 0 0 0 0c14,-3 25,-5 40,-5l2966 7zm-1306 3022l0 0 0 1 0 -1zm-1 4l0 0 0 0 0 0zm-1 3l0 0 -1 0 1 0zm-7 13l0 0 0 0 0 0zm-2 3l0 0 0 0 0 0zm-4 6l0 0 0 0 0 0zm-4 5l0 0 0 0 0 0zm-2 3l0 0 0 0 0 0zm-2 3l0 0 0 0 0 0zm-1 1l0 0 0 0 0 0zm-6 7l0 0 -1 1 1 -1zm-2 2l0 0 0 0 0 0zm-5 5l0 0 0 0 0 0zm-2 2l0 0 0 0 0 0zm-7 6l0 0 -1 1 1 -1zm-2 2l0 0 0 0 0 0zm-3 2l0 0 0 0 0 0zm-2 2l0 0 -1 0 1 0zm-6 4l0 0 0 0 0 0zm-5 3l0 0 0 0 0 0zm-3 2l0 0 -1 0 1 0zm-17 8l0 0 -23 8 0 1 0 -1 23 -8zm-1723 -3016l0 0 0 -1 0 1zm1 -3l0 0 0 0 0 0zm1 -3l0 0 1 -1 -1 1zm7 -13l0 0 0 0 0 0zm2 -4l0 0 0 0 0 0zm4 -5l0 0 0 0 0 0zm4 -5l0 0 0 -1 0 1zm2 -3l0 0 0 0 0 0zm2 -3l0 0 0 0 0 0zm1 -1l0 0 0 -1 0 1zm6 -8l0 0 1 0 -1 0zm2 -2l0 0 0 0 0 0zm5 -5l0 0 0 0 0 0zm2 -1l0 0 0 -1 0 1zm7 -7l0 0 1 0 -1 0zm2 -1l0 0 0 0 0 0zm3 -2l0 0 0 0 0 0zm2 -2l0 0 1 0 -1 0zm6 -4l0 0 0 0 0 0zm5 -4l0 0 0 0 0 0zm4 -2l0 0 0 0 0 0zm16 -8l0 0 0 0 0 0zm23 -8l0 0 0 0 0 0z"/>
  </g>
  <g id="_1932602954464">
   <path class="fil0" d="M21552 1415c51,0 101,13 150,39 48,27 86,64 113,113 28,49 41,100 41,152 0,53 -13,103 -40,152 -27,48 -64,85 -112,112 -49,27 -99,40 -152,40 -52,0 -103,-13 -151,-40 -48,-27 -86,-64 -113,-112 -26,-49 -40,-99 -40,-152 0,-52 14,-103 41,-152 27,-49 65,-86 114,-113 48,-26 98,-39 149,-39zm0 51l0 0c-42,0 -84,11 -125,32 -40,22 -72,54 -94,94 -23,41 -35,83 -35,127 0,44 12,86 34,126 22,41 54,72 94,94 40,23 82,34 126,34 44,0 86,-11 126,-34 41,-22 72,-53 94,-94 23,-40 34,-82 34,-126 0,-44 -12,-86 -34,-127 -23,-40 -55,-72 -95,-94 -41,-21 -82,-32 -125,-32z"/>
   <path class="fil0" d="M21674 1822c-16,-29 -35,-51 -49,-64 -7,-7 -16,-14 -27,-18 28,-3 51,-13 68,-30 17,-18 26,-39 26,-63 0,-17 -5,-32 -16,-48 -10,-15 -23,-25 -41,-31 -17,-6 -45,-9 -83,-9l-113 0 0 327 53 0 0 -139 31 0c19,0 32,8 42,16 14,10 39,40 52,66 11,20 18,57 18,57l64 0c0,0 -9,-36 -25,-64zm-118 -120l0 0 -64 0 0 -99 60 0c26,0 44,2 53,6 10,4 17,9 23,17 5,8 8,16 8,26 0,15 -6,27 -17,36 -11,9 -32,14 -63,14z"/>
  </g>
  <path class="fil1" d="M15312 2714l-531 0 0 -107c0,-92 -5,-149 -16,-174 -10,-24 -36,-36 -78,-36 -34,0 -59,11 -76,33 -17,23 -25,56 -25,101 0,61 4,105 12,133 8,29 34,60 76,93 42,35 128,84 259,149 175,85 289,165 343,241 55,76 82,186 82,330 0,161 -21,283 -62,364 -42,82 -112,146 -210,190 -98,45 -215,66 -354,66 -152,0 -284,-23 -392,-71 -109,-48 -184,-112 -225,-194 -40,-81 -61,-204 -61,-369l0 -95 535 0 0 124c0,106 6,175 20,207 13,31 40,47 79,47 43,0 72,-10 89,-32 17,-21 25,-66 25,-135 0,-94 -10,-153 -32,-177 -23,-24 -140,-95 -350,-212 -176,-100 -284,-190 -323,-271 -39,-81 -58,-177 -58,-289 0,-158 21,-275 63,-349 41,-76 112,-134 212,-174 100,-41 216,-62 347,-62 132,0 243,17 335,50 92,34 162,78 212,133 48,54 78,105 89,152 10,47 15,120 15,219l0 115zm1572 391l0 0 -782 0 0 429c0,90 7,148 20,174 13,26 38,38 75,38 46,0 77,-17 93,-51 15,-35 23,-101 23,-200l0 -249 571 0 0 134c0,123 -8,217 -23,282 -16,66 -52,136 -108,211 -57,75 -129,131 -216,168 -87,38 -196,56 -327,56 -128,0 -240,-18 -338,-55 -97,-37 -173,-87 -227,-151 -55,-64 -92,-135 -113,-212 -21,-77 -31,-189 -31,-337l0 -577c0,-173 23,-310 70,-410 47,-100 123,-177 229,-230 107,-53 229,-80 368,-80 169,0 308,32 418,97 110,64 188,149 232,255 44,105 66,254 66,446l0 262zm-602 -321l0 0 0 -144c0,-103 -5,-169 -16,-199 -12,-30 -34,-44 -69,-44 -43,0 -69,12 -79,38 -11,25 -16,93 -16,205l0 144 180 0zm1409 -702l0 0 -10 151c61,-71 92,-98 155,-136 63,-36 142,-52 225,-52 103,0 187,25 253,74 66,48 108,110 127,184 19,74 28,197 28,370l0 1388 -601 0 0 -1372c0,-136 -5,-220 -14,-249 -9,-30 -34,-45 -75,-45 -43,0 -70,17 -81,51 -11,35 -17,127 -17,276l0 1339 -601 0 0 -1979 611 0zm2217 632l0 0 -532 0 0 -107c0,-92 -5,-149 -16,-174 -10,-24 -36,-36 -78,-36 -33,0 -59,11 -76,33 -16,23 -25,56 -25,101 0,61 4,105 13,133 8,29 33,60 75,93 42,35 129,84 259,149 175,85 289,165 343,241 55,76 82,186 82,330 0,161 -20,283 -62,364 -42,82 -112,146 -209,190 -99,45 -216,66 -355,66 -152,0 -284,-23 -392,-71 -109,-48 -184,-112 -224,-194 -41,-81 -61,-204 -61,-369l0 -95 534 0 0 124c0,106 7,175 20,207 14,31 40,47 79,47 43,0 72,-10 89,-32 17,-21 26,-66 26,-135 0,-94 -11,-153 -33,-177 -23,-24 -139,-95 -350,-212 -176,-100 -284,-190 -323,-271 -38,-81 -58,-177 -58,-289 0,-158 21,-275 63,-349 42,-76 112,-134 212,-174 100,-41 216,-62 348,-62 131,0 242,17 334,50 92,34 162,78 212,133 49,54 79,105 89,152 11,47 16,120 16,219l0 115zm1571 391l0 0 -781 0 0 429c0,90 6,148 19,174 13,26 38,38 75,38 46,0 78,-17 93,-51 16,-35 23,-101 23,-200l0 -249 571 0 0 134c0,123 -7,217 -23,282 -15,66 -51,136 -108,211 -57,75 -129,131 -216,168 -87,38 -196,56 -327,56 -127,0 -240,-18 -338,-55 -97,-37 -173,-87 -227,-151 -55,-64 -92,-135 -112,-212 -21,-77 -32,-189 -32,-337l0 -577c0,-173 23,-310 70,-410 47,-100 123,-177 230,-230 107,-53 229,-80 367,-80 169,0 309,32 419,97 109,64 187,149 231,255 44,105 66,254 66,446l0 262zm-601 -321l0 0 0 -144c0,-103 -6,-169 -17,-199 -11,-30 -34,-44 -69,-44 -43,0 -69,12 -79,38 -10,25 -15,93 -15,205l0 144 180 0z"/>
  <path class="fil2" d="M4250 404l-327 0 0 -68 -3440 0c-14,0 -25,2 -39,5l0 0 0 0 -1 0 -17 6 -3 1 -2 1 -3 2 -13 7 0 0 -3 1 0 1 -6 3 0 0 -5 4 0 0 -2 2 0 0 -3 2 0 0 -2 1 0 1 -2 2 0 0 -3 2 -2 2 0 0 -2 2 0 0 -5 5 0 0 -1 2 0 0 -3 3 -2 1 1 0 -3 3 0 0 -1 1 0 1 -2 2 0 1 -2 2 0 0 -1 2 -343 0 0 -23c51,-218 243,-381 470,-381l0 0 3767 0 0 333 0 3 0 68z"/>
  <polygon class="fil3" points="3923,337 4250,161 4250,333 4250,336 4250,497 3924,672 3923,672 "/>
  <path class="fil4" d="M90 209l299 160 -3 2 0 0 -2 1 0 1 -2 2 0 0 -3 2 -2 2 0 0 -2 2 0 0 -5 5 0 0 -1 2 0 0 -3 3 -2 1 1 0 -3 3 0 0 -1 1 0 1 -2 2 0 1 -2 2 0 0 -3 5 -1 1 -3 5 0 0 -2 3 0 1 -7 12 0 1 -1 3 0 0 -1 2 -1 2 0 1 -6 19c0,-1 -5,26 -5,39l0 0 0 176 -327 -175 0 -1c0,-107 33,-206 90,-287z"/>
  <polygon class="fil5" points="3596,1008 654,1008 654,672 3596,672 "/>
  <path class="fil2" d="M0 3964l327 0 0 67 3440 0 0 0c14,0 25,-1 38,-5l1 0 0 0 0 0 18 -6 2 -1 2 -1 4 -1 12 -7 0 0 3 -2 1 0 5 -4 0 0 5 -3 0 -1 3 -2 0 0 3 -2 0 0 1 -1 0 0 3 -2 0 0 3 -3 1 -1 0 -1 2 -1 0 0 5 -5 0 -1 2 -1 0 0 2 -3 2 -2 0 0 2 -3 0 0 1 -1 0 0 2 -3 0 0 2 -3 1 0 1 -1 342 0 0 23c-51,218 -242,380 -469,380l0 0 -3767 0 0 -332 0 -4 0 -67z"/>
  <polygon class="fil6" points="327,4031 0,4206 0,4035 0,4031 0,3870 325,3695 327,3695 "/>
  <path class="fil7" d="M4160 4158l-299 -160 3 -2 0 0 1 -1 0 0 3 -2 0 0 3 -3 1 -1 0 -1 2 -1 0 0 5 -5 0 -1 2 -1 0 0 2 -3 2 -2 0 0 2 -3 0 0 1 -1 0 0 2 -3 0 0 2 -3 1 0 3 -5 0 0 4 -6 0 0 2 -3 0 0 6 -13 1 -1 1 -2 0 -1 1 -2 0 -1 1 -1 6 -19c0,0 5,-27 5,-40l0 0 0 -175 327 174 0 1c-1,107 -34,206 -90,287z"/>
  <polygon class="fil8" points="1584,1680 327,1680 327,1344 1584,1344 "/>
  <polygon class="fil9" points="949,1680 327,1346 327,1344 960,1344 1584,1678 1584,1680 "/>
  <polygon class="fil8" points="2665,1680 3923,1680 3923,1344 2665,1344 "/>
  <polygon class="fil10" points="3300,1680 3923,1346 3923,1344 3289,1344 2665,1678 2665,1680 "/>
  <polygon class="fil8" points="2665,2688 3923,2688 3923,3024 2665,3024 "/>
  <polygon class="fil11" points="3300,2688 3923,3021 3923,3024 3289,3024 2665,2689 2665,2688 "/>
  <polygon class="fil8" points="1584,2688 327,2688 327,3024 1584,3024 "/>
  <polygon class="fil12" points="949,2688 327,3021 327,3024 960,3024 1584,2689 1584,2688 "/>
  <polygon class="fil13" points="1584,1680 0,832 0,496 1584,1344 "/>
  <polygon class="fil14" points="2665,1680 4250,832 4250,496 2665,1344 "/>
  <polygon class="fil5" points="3602,3695 660,3695 660,3360 3602,3360 "/>
  <polygon class="fil15" points="2665,2688 4250,3535 4250,3871 2665,3024 "/>
  <polygon class="fil16" points="1584,2688 0,3535 0,3871 1584,3024 "/>
  <polygon class="fil1" points="4250,2016 3293,2016 3595,1854 3595,1518 2665,2016 2665,2016 2665,2016 2665,2351 2665,2352 2665,2352 2666,2352 3596,2849 3596,2513 3294,2352 4250,2352 "/>
  <polygon class="fil1" points="654,1518 654,1854 957,2016 0,2016 0,2352 956,2352 654,2513 654,2849 1584,2352 1584,2352 1584,2352 1584,2351 1584,2016 1584,2016 1584,2016 "/>
 </g>
</svg>
