<svg id="Layer_1" data-name="Layer 1" xmlns="http://www.w3.org/2000/svg" xmlns:xlink="http://www.w3.org/1999/xlink" viewBox="0 0 870.18 175.68"><defs><style>.cls-1{fill:none;}.cls-2{clip-path:url(#clip-path);}.cls-3{fill:#8a8c8e;}.cls-4{fill:url(#linear-gradient);}.cls-5{fill:url(#linear-gradient-2);}.cls-6{fill:#414042;}.cls-7{clip-path:url(#clip-path-2);}.cls-8{fill:url(#linear-gradient-3);}.cls-9{fill:url(#linear-gradient-4);}.cls-10{clip-path:url(#clip-path-3);}.cls-11{fill:#58595b;}.cls-12{fill:url(#linear-gradient-5);}.cls-13{clip-path:url(#clip-path-4);}.cls-14{fill:url(#linear-gradient-6);}.cls-15{clip-path:url(#clip-path-5);}.cls-16{fill:url(#linear-gradient-7);}.cls-17{clip-path:url(#clip-path-6);}.cls-18{fill:url(#linear-gradient-8);}.cls-19{fill:url(#linear-gradient-9);}.cls-20{fill:url(#linear-gradient-10);}.cls-21{fill:url(#linear-gradient-11);}.cls-22{fill:url(#linear-gradient-12);}.cls-23{fill:#d75227;}.cls-24{fill:#808285;}</style><clipPath id="clip-path" transform="translate(-160.84 -290.82)"><path class="cls-1" d="M179.61,318.78v-7h0a11.71,11.71,0,0,1,.2-1.57l.23-.74,0-.05,0-.05,0-.09h0l0-.12v0l.26-.5h0l.08-.12h0l.14-.22h0l.13-.2v0l.07-.09h0l.08-.11h0l0-.05h0l.09-.11h0l.06-.08.1-.11h0l.06-.07h0l.19-.2h0l.06-.07h0l.07-.07.11-.1h0l.1-.09h0l.05,0h0l.11-.09h0l.09-.08h0l.19-.14h0l.21-.14h0l.12-.07h0l.5-.26.14-.07h0l.09,0,.09,0,.7-.23h0a6.06,6.06,0,0,1,1.53-.2H322.05v13.31H335V292.16H185.79c-10.53,0-19.12,8.84-19.13,19.65h0v7Z"/></clipPath><linearGradient id="linear-gradient" x1="-2392.17" y1="953.05" x2="-2362.48" y2="953.05" gradientTransform="matrix(0.19, 0.36, -0.68, 0.35, 1255.51, 531.26)" gradientUnits="userSpaceOnUse"><stop offset="0" stop-color="#737373"/><stop offset="1" stop-color="#333"/></linearGradient><linearGradient id="linear-gradient-2" x1="-2095.81" y1="2492.18" x2="-2066.24" y2="2492.18" gradientTransform="matrix(-0.19, 0.36, -0.55, -0.29, 995.99, 1475.72)" xlink:href="#linear-gradient"/><clipPath id="clip-path-2" transform="translate(-160.84 -290.82)"><path class="cls-1" d="M322.05,438.54v7h0a13.73,13.73,0,0,1-.2,1.57l-.23.74,0,.05,0,.05,0,.09h0l-.05.11,0,0-.26.5h0l-.07.12h0L321,449h0l-.13.19,0,0-.07.09h0l-.08.11h0l0,.05h0l-.09.11h0l-.07.08-.1.11h0l-.07.07h0l-.19.2h0l-.07.07h0l-.07.06-.11.1h0l-.11.1h0l0,0h0l-.11.08h0l-.1.07h0l-.2.14h0l-.21.15h0L319,451h0l-.49.26-.14.07h0l-.09,0-.1,0-.69.23h0a6.08,6.08,0,0,1-1.54.2H179.61V438.54h-13v26.62H315.87c10.53,0,19.12-8.83,19.12-19.65h0v-7Z"/></clipPath><linearGradient id="linear-gradient-3" x1="1941.55" y1="2058.58" x2="1971.23" y2="2058.58" gradientTransform="matrix(-0.19, -0.36, 0.68, -0.35, -1011.91, 1583.97)" xlink:href="#linear-gradient"/><linearGradient id="linear-gradient-4" x1="2097.04" y1="956.37" x2="2126.61" y2="956.37" gradientTransform="matrix(0.19, -0.36, 0.55, 0.29, -752.39, 639.51)" xlink:href="#linear-gradient"/><clipPath id="clip-path-3" transform="translate(-160.84 -290.82)"><rect class="cls-1" x="179.61" y="345.39" width="49.8" height="13.31"/></clipPath><linearGradient id="linear-gradient-5" x1="2959.37" y1="2525.34" x2="3014.14" y2="2525.34" gradientTransform="matrix(-1.52, -1.02, 3.14, 1.52, -3343.46, -725.41)" gradientUnits="userSpaceOnUse"><stop offset="0.11" stop-color="#58595b"/><stop offset="1"/></linearGradient><clipPath id="clip-path-4" transform="translate(-160.84 -290.82)"><rect class="cls-1" x="272.24" y="345.39" width="49.8" height="13.31"/></clipPath><linearGradient id="linear-gradient-6" x1="2966.18" y1="2529.91" x2="3020.95" y2="2529.91" gradientTransform="matrix(1.52, -1.02, -3.14, 1.52, 3527.44, -725.41)" xlink:href="#linear-gradient-5"/><clipPath id="clip-path-5" transform="translate(-160.84 -290.82)"><rect class="cls-1" x="272.24" y="398.62" width="49.8" height="13.31"/></clipPath><linearGradient id="linear-gradient-7" x1="-2425.64" y1="-62.97" x2="-2370.87" y2="-62.97" gradientTransform="matrix(1.52, 1.02, -3.14, -1.52, 3587.06, 2467.55)" xlink:href="#linear-gradient-5"/><clipPath id="clip-path-6" transform="translate(-160.84 -290.82)"><rect class="cls-1" x="179.61" y="398.62" width="49.8" height="13.31"/></clipPath><linearGradient id="linear-gradient-8" x1="-2634.7" y1="-203.49" x2="-2579.93" y2="-203.49" gradientTransform="matrix(-1.52, 1.02, 3.14, -1.52, -3283.84, 2467.55)" xlink:href="#linear-gradient-5"/><linearGradient id="linear-gradient-9" x1="5.82" y1="44.44" x2="68.57" y2="44.44" gradientUnits="userSpaceOnUse"><stop offset="0.24" stop-color="#a7a9ac"/><stop offset="1" stop-color="#404040"/></linearGradient><linearGradient id="linear-gradient-10" x1="61.82" y1="335.26" x2="124.57" y2="335.26" gradientTransform="matrix(-1, 0, 0, 1, 235.97, -290.82)" xlink:href="#linear-gradient-9"/><linearGradient id="linear-gradient-11" x1="230.3" y1="1971.74" x2="293.05" y2="1971.74" gradientTransform="translate(404.45 2102.98) rotate(180)" xlink:href="#linear-gradient-9"/><linearGradient id="linear-gradient-12" x1="-1.81" y1="1971.74" x2="60.94" y2="1971.74" gradientTransform="matrix(1, 0, 0, -1, 7.63, 2102.98)" xlink:href="#linear-gradient-9"/></defs><title>OPNsense_Logo</title><g class="cls-2"><rect class="cls-3" x="6.35" width="168.67" height="17.33"/><polygon class="cls-4" points="160.91 28.15 155.59 17.69 174.65 7.45 179.97 17.91 160.91 28.15"/><polygon class="cls-5" points="3.42 19.75 8.71 9.28 24.23 17.57 18.93 28.04 3.42 19.75"/></g><rect class="cls-6" x="31.71" y="27.96" width="116.54" height="13.31"/><rect class="cls-6" x="31.71" y="134.42" width="116.54" height="13.31"/><g class="cls-7"><rect class="cls-3" x="4.96" y="158.35" width="168.67" height="17.33"/><polygon class="cls-8" points="19.06 147.53 24.38 157.99 5.32 168.23 0 157.78 19.06 147.53"/><polygon class="cls-9" points="176.55 155.93 171.26 166.4 155.75 158.11 161.04 147.64 176.55 155.93"/></g><g class="cls-10"><rect class="cls-11" x="18.77" y="54.57" width="49.8" height="13.31"/><polygon class="cls-12" points="68.68 67.88 63.27 78.52 18.11 54.32 23.52 43.67 68.68 67.88"/></g><g class="cls-13"><rect class="cls-11" x="111.4" y="54.57" width="49.8" height="13.31"/><polygon class="cls-14" points="111.29 67.88 116.69 78.52 161.85 54.32 156.46 43.67 111.29 67.88"/></g><g class="cls-15"><rect class="cls-11" x="111.4" y="107.8" width="49.8" height="13.31"/><polygon class="cls-16" points="111.29 107.8 116.69 97.16 161.85 121.36 156.46 132.01 111.29 107.8"/></g><g class="cls-17"><rect class="cls-11" x="18.77" y="107.8" width="49.8" height="13.31"/><polygon class="cls-18" points="68.68 107.8 63.27 97.16 18.11 121.36 23.52 132.01 68.68 107.8"/></g><polygon class="cls-19" points="68.57 67.88 5.82 34.3 5.82 20.99 68.57 54.57 68.57 67.88"/><polygon class="cls-20" points="111.4 67.88 174.15 34.3 174.15 20.99 111.4 54.57 111.4 67.88"/><polygon class="cls-21" points="111.4 107.8 174.15 141.38 174.15 154.69 111.4 121.11 111.4 107.8"/><polygon class="cls-22" points="68.57 107.8 5.82 141.38 5.82 154.69 68.57 121.11 68.57 107.8"/><polygon class="cls-23" points="174.15 81.19 136.25 81.19 148.24 74.77 148.24 61.46 111.4 81.18 111.4 81.18 111.4 81.19 111.4 94.49 111.4 94.49 111.4 94.49 111.41 94.49 148.26 114.21 148.26 100.9 136.28 94.49 174.15 94.49 174.15 81.19"/><polygon class="cls-23" points="31.73 61.46 31.73 74.77 43.72 81.19 5.82 81.19 5.82 94.49 43.69 94.49 31.71 100.9 31.71 114.21 68.56 94.49 68.57 94.49 68.57 94.49 68.57 94.49 68.57 81.19 68.57 81.18 68.57 81.18 31.73 61.46"/><path class="cls-24" d="M468.81,302.91H396.16a19.41,19.41,0,0,0-19.37,19.37V452.76H456a19.41,19.41,0,0,0,19.37-19.37V302.91Zm161.1.54H709.1V433.92c0,17.05-13.76,19.74-26.94,19.74-2.2,0-4.95-.12-7.48-.24-1.64-.07-3.16-.14-5-.14V440.19c1.26,0,3.32.1,5.54.2,2,.09,4.15.19,6.92.19,6.78,0,13.85-.91,13.85-6.66V316.54H628.48l-.06,0h0l-.06,0h0l-.07,0h0l-.07,0h0l-.08,0h0l-.07,0h0l-.06,0h0l-.06,0h0l-.06,0h-.09l0,0h0l-.05,0h-.09l0,0,0,0h0l0,0h0l0,0h0l0,0h0l0,0h0l0,0h0l-.11.07h0l-.05,0h0l-.06,0h0l-.06,0h0l-.06,0-.06,0h0l-.06,0h0l-.06,0h0l-.06,0h0l-.05,0h0l0,0-.07,0h0l0,0,0,0,0,0,0,0,0,0,0,0,0,0,0,0,0,0,0,0,0,0,0,0,0,0,0,0h0l0,0h0l0,0h0l0,0h0l-.05,0h0l0,0h0l0,0h0l0,.05a6.22,6.22,0,0,0-1.85,4.42V446.74h-.11v6.54h-13V322.81a19.41,19.41,0,0,1,19.37-19.36Zm-47-.35H514.1A18.15,18.15,0,0,0,496,321.21v72h0v59.32h13.15V393.17h62.21a18.16,18.16,0,0,0,18.12-18.12V303.1Zm-68.8,13.15h62.22v58.8a5.81,5.81,0,0,1-.05.72h0l0,.14h0l0,.08h0l0,.08v.06h0l0,.08h0l0,.2h0v.05l0,.08,0,.05v0l0,.11h0l0,.11h0l0,.1v0l0,.1v0l0,.05h0l-.09.17h0l0,.09v0l0,0v0l-.1.16h0l0,.05h0l0,.08v0l0,.05,0,0-.06.1-.09.11,0,0-.11.14v0l-.22.23-.2.2-.12.1-.23.19,0,0h0l-.13.1h0l0,0,0,0-.16.11h0l0,0h0l-.1.05,0,0-.26.13h0l-.18.08h0l-.13.05h0a2.24,2.24,0,0,1-.46.16l-.13,0h0l-.14,0h-.08l-.14,0h0l-.13,0h0a4.17,4.17,0,0,1-.71.05H509.14v-58.8a5.65,5.65,0,0,1,.05-.71h0l0-.14h0l0-.1,0-.13h0l0-.12v0l0-.14.1-.29v0l0,.05v0l.06-.16h0l.06-.13h0l.08-.18v0l.13-.26h0l.06-.11h0v0l.11-.16,0,0,0-.06h0l.09-.14.09-.1.13-.17,0,0,.09-.09,0,0,.19-.2.22-.19v0l.14-.11h0l.12-.09,0,0,.09-.07.06,0,.09-.07h0l.05,0h0l.16-.09h0l0,0h0l.09-.05h0l.17-.08h0l.06,0h0l.1,0h0l.11,0,.13-.05.14-.05h0l.21-.06.2-.06h0l.07,0h.07l.08,0h.09l.14,0h0a5.65,5.65,0,0,1,.71-.05Zm62.17,59.52Zm0,.14Zm0,.08Zm0,.14h0Zm0,.09Zm0,.2h0Zm0,.06,0,.08,0-.08Zm0,.13v0Zm-.05.14h0Zm0,.12h0Zm0,.11v0Zm-.06.12v0Zm-.11.23h0Zm0,.1v0Zm0,.05v0Zm-.11.18h0Zm0,.06Zm0,.08v0Zm-.05.07,0,0,0,0Zm-.17.23,0,0,0,0Zm-.13.16v0Zm-.8.76h0Zm-.15.11h0Zm-.06,0,0,0,0,0Zm-.21.13h0Zm0,0h0Zm-.12.06,0,0,0,0Zm-.44.22h0Zm-.72.25h0Zm-.37.08h0Zm-.14,0h0ZM509.19,320.5Zm0-.14Zm.05-.23h0Zm0-.13v0Zm.25-.73h0Zm.21-.43h0Zm.07-.12h0Zm0,0v0Zm.12-.18,0,0,0,0Zm.07-.1Zm.31-.41,0,0,0,0Zm.11-.11,0,0,0,0Zm.43-.42v0Zm.15-.13h0Zm.14-.1,0,0,0,0Zm.26-.19Zm.05,0h0Zm.17-.1h0Zm.06,0h0Zm.1-.06h0Zm.23-.11h0Zm.11,0h0Zm.78-.27h0Zm.08,0h0Zm.07,0Zm.08,0h0Zm.08,0h0Zm.15,0ZM396.16,316h66.09V433.39a11.73,11.73,0,0,1-.2,1.56l-.24.73h0l0-.05,0,.05,0,0v0l0,.1h0l-.06.11v0l-.26.5h0l-.08.12h0l-.14.22h0l-.14.19,0,0-.07.09h0l-.09.11h0l0,0h0l-.09.1h0l-.06.08-.1.11h0l-.06.07h0l-.19.19h0l-.07.06h0l-.07.06-.12.1h0l-.1.09h0l-.05,0h0l-.11.09h0l-.09.07,0,0-.2.13h0l-.22.14h0l-.12.08h0l-.5.26-.14.06h0l-.09,0-.1,0-.71.24h0a6.16,6.16,0,0,1-1.55.2H389.9V322.28a11.25,11.25,0,0,1,.2-1.55l.24-.74h0l0,.05,0-.05,0,0,0-.06,0-.09h0l.05-.11v0l.26-.5h0l.07-.12h0l.14-.22h0l.14-.2v0l.07-.09h0l.09-.11h0l0-.05h0l.09-.11h0l.06-.08.1-.11h0l.06-.07h0l.19-.19h0l.07-.06h0l.07-.06.12-.1h0l.1-.09h0l.05,0h0l.11-.09h0l.09-.07,0,0,.2-.13h0l.22-.14h0l.12-.07h0l.5-.26.14-.06h0l.09,0,.1,0,.71-.24h0a6.3,6.3,0,0,1,1.56-.2Zm65.63,119.7v0Zm-.05.15Zm-.06.11v0Zm-.27.53Zm-.08.12h0Zm-.14.23h0Zm-.14.2,0,0,0,0Zm-.09.11h0Zm-.09.12Zm0,0h0Zm-.25.29h0Zm-.07.07h0Zm-.2.2h0Zm-.08.07h0Zm-.28.25h0Zm-.06,0Zm-.11.09h0Zm-.1.07,0,0,0,0Zm-.22.15h0Zm-.22.15h0Zm-.13.08Zm-.64.32Zm-.9.32h0ZM390.36,320l0-.06,0,.06Zm.06-.15Zm.05-.11v0Zm.27-.53h0Zm.08-.12h0Zm.14-.23h0Zm.15-.2v0Zm.08-.11h0Zm.09-.12Zm0-.05h0Zm.25-.29h0Zm.07-.07h0Zm.2-.2h0Zm.08-.07h0Zm.28-.25h0Zm.06-.05h0Zm.12-.09Zm.09-.07,0,0,0,0Zm.22-.15h0Zm.22-.15h0Zm.13-.07h0Zm.64-.33Zm.91-.32h0Z" transform="translate(-160.84 -290.82)"/><path class="cls-24" d="M1019,347.91a12.27,12.27,0,0,1,5.91,1.56,11,11,0,0,1,4.49,4.44,12.28,12.28,0,0,1,1.61,6,12.14,12.14,0,0,1-1.59,6,11.12,11.12,0,0,1-4.44,4.45,12,12,0,0,1-12,0,11.21,11.21,0,0,1-4.45-4.45,12.05,12.05,0,0,1,0-12,11.06,11.06,0,0,1,4.5-4.44,12.27,12.27,0,0,1,5.91-1.56Zm0,2a10.3,10.3,0,0,0-4.93,1.3,9.3,9.3,0,0,0-3.75,3.71,10,10,0,0,0,0,10,9.5,9.5,0,0,0,3.72,3.72,10,10,0,0,0,10,0,9.42,9.42,0,0,0,3.71-3.72,10,10,0,0,0,0-10,9.3,9.3,0,0,0-3.75-3.71,10.29,10.29,0,0,0-4.92-1.3Z" transform="translate(-160.84 -290.82)"/><path class="cls-24" d="M1023.83,364a11.46,11.46,0,0,0-1.92-2.52,3.46,3.46,0,0,0-1.09-.73,4.07,4.07,0,0,0,2.7-1.18,3.45,3.45,0,0,0,1-2.46,3.31,3.31,0,0,0-.6-1.89,3.21,3.21,0,0,0-1.63-1.25,10.84,10.84,0,0,0-3.3-.36h-4.45V366.5h2.09V361h1.23a2.59,2.59,0,0,1,1.64.62,9.37,9.37,0,0,1,2.08,2.63,11.08,11.08,0,0,1,.69,2.22h2.53A11,11,0,0,0,1023.83,364Zm-4.66-4.75h-2.53v-3.88H1019a6.86,6.86,0,0,1,2.1.22,1.83,1.83,0,0,1,.88.68,1.83,1.83,0,0,1-.34,2.44A4.1,4.1,0,0,1,1019.17,359.23Z" transform="translate(-160.84 -290.82)"/><path class="cls-23" d="M772.44,399.25h-21V395c0-3.62-.2-5.89-.62-6.85s-1.45-1.45-3.1-1.45a3.53,3.53,0,0,0-3,1.32,6.65,6.65,0,0,0-1,4,19.83,19.83,0,0,0,.5,5.28,8.19,8.19,0,0,0,3,3.68c1.65,1.34,5.07,3.29,10.23,5.85,6.9,3.38,11.41,6.55,13.56,9.55s3.24,7.32,3.24,13q0,9.56-2.48,14.41a16.5,16.5,0,0,1-8.26,7.51,33.87,33.87,0,0,1-14,2.61A38.58,38.58,0,0,1,734,451.09q-6.45-2.82-8.86-7.66t-2.42-14.6v-3.76h21.12V430q0,6.27.78,8.16a3.09,3.09,0,0,0,3.14,1.87c1.69,0,2.86-.42,3.52-1.26s1-2.64,1-5.33q0-5.61-1.29-7T737.18,418q-10.47-5.88-12.77-10.7a26.2,26.2,0,0,1-2.29-11.4q0-9.39,2.47-13.82t8.39-6.88a36.12,36.12,0,0,1,13.73-2.41,39.06,39.06,0,0,1,13.22,2,20.28,20.28,0,0,1,8.36,5.23,13.89,13.89,0,0,1,3.52,6,42.29,42.29,0,0,1,.63,8.67v4.55Zm62.1,15.44H803.65v17q0,5.31.77,6.86a3,3,0,0,0,3,1.52c1.83,0,3.06-.68,3.66-2s.93-4,.93-7.9v-9.83h22.56v5.29a52.7,52.7,0,0,1-.9,11.16,23,23,0,0,1-4.29,8.32,20.9,20.9,0,0,1-8.52,6.66,33,33,0,0,1-12.93,2.21,37.35,37.35,0,0,1-13.34-2.19,20.63,20.63,0,0,1-13.44-14.36,54.15,54.15,0,0,1-1.24-13.29V401.24q0-10.26,2.77-16.19a19,19,0,0,1,9.07-9.07,32.09,32.09,0,0,1,14.53-3.16q10,0,16.53,3.8a21,21,0,0,1,9.15,10.08c1.75,4.16,2.61,10.05,2.61,17.63v10.36ZM810.77,402v-5.71c0-4.06-.22-6.66-.66-7.84a2.62,2.62,0,0,0-2.72-1.77c-1.69,0-2.73.5-3.13,1.51s-.61,3.69-.61,8.1V402Zm55.65-27.75-.36,6a20.32,20.32,0,0,1,6.11-5.36,17.65,17.65,0,0,1,8.87-2.06,16.37,16.37,0,0,1,10,2.9,12.79,12.79,0,0,1,5,7.28c.74,2.91,1.12,7.8,1.12,14.64v54.82H873.42V398.24c0-5.37-.18-8.66-.54-9.83s-1.33-1.77-3-1.77-2.78.68-3.22,2-.64,5-.64,10.88v52.91H842.29V374.27Zm87.61,25H933V395c0-3.62-.2-5.89-.62-6.85s-1.45-1.45-3.1-1.45a3.53,3.53,0,0,0-3,1.32,6.65,6.65,0,0,0-1,4,19.83,19.83,0,0,0,.5,5.28,8.19,8.19,0,0,0,3,3.68c1.65,1.34,5.07,3.29,10.23,5.85,6.9,3.38,11.41,6.55,13.56,9.55s3.24,7.32,3.24,13q0,9.56-2.47,14.41a16.57,16.57,0,0,1-8.27,7.51,33.84,33.84,0,0,1-14,2.61,38.58,38.58,0,0,1-15.51-2.82q-6.45-2.82-8.87-7.66t-2.41-14.6v-3.76h21.12V430q0,6.27.78,8.16a3.1,3.1,0,0,0,3.14,1.87c1.69,0,2.86-.42,3.52-1.26s1-2.64,1-5.33q0-5.61-1.29-7T918.77,418q-10.47-5.88-12.77-10.7a26.2,26.2,0,0,1-2.29-11.4q0-9.39,2.47-13.82t8.39-6.88a36.16,36.16,0,0,1,13.73-2.41,39.06,39.06,0,0,1,13.22,2,20.28,20.28,0,0,1,8.36,5.23,13.89,13.89,0,0,1,3.52,6,42.29,42.29,0,0,1,.63,8.67v4.55Zm62.1,15.44H985.24v17q0,5.31.77,6.86a3,3,0,0,0,3,1.52c1.83,0,3.06-.68,3.66-2s.93-4,.93-7.9v-9.83h22.56v5.29a52.7,52.7,0,0,1-.9,11.16,23,23,0,0,1-4.29,8.32,20.84,20.84,0,0,1-8.52,6.66,33,33,0,0,1-12.94,2.21,37.34,37.34,0,0,1-13.33-2.19,20.59,20.59,0,0,1-13.43-14.36c-.83-3-1.25-7.46-1.25-13.29V401.24q0-10.26,2.77-16.19a19,19,0,0,1,9.07-9.07,32.06,32.06,0,0,1,14.53-3.16q10,0,16.53,3.8a21,21,0,0,1,9.15,10.08c1.75,4.16,2.61,10.05,2.61,17.63v10.36ZM992.36,402v-5.71c0-4.06-.22-6.66-.66-7.84A2.62,2.62,0,0,0,989,386.7c-1.69,0-2.73.5-3.14,1.51s-.6,3.69-.6,8.1V402Z" transform="translate(-160.84 -290.82)"/></svg>