<svg id="Layer_1" data-name="Layer 1" xmlns="http://www.w3.org/2000/svg" xmlns:xlink="http://www.w3.org/1999/xlink" viewBox="0 0 179.97 175.68"><defs><style>.cls-1{fill:none;}.cls-2{clip-path:url(#clip-path);}.cls-3{fill:#8a8c8e;}.cls-4{fill:url(#linear-gradient);}.cls-5{fill:url(#linear-gradient-2);}.cls-6{fill:#414042;}.cls-7{clip-path:url(#clip-path-2);}.cls-8{fill:url(#linear-gradient-3);}.cls-9{fill:url(#linear-gradient-4);}.cls-10{clip-path:url(#clip-path-3);}.cls-11{fill:#58595b;}.cls-12{fill:url(#linear-gradient-5);}.cls-13{clip-path:url(#clip-path-4);}.cls-14{fill:url(#linear-gradient-6);}.cls-15{clip-path:url(#clip-path-5);}.cls-16{fill:url(#linear-gradient-7);}.cls-17{clip-path:url(#clip-path-6);}.cls-18{fill:url(#linear-gradient-8);}.cls-19{fill:url(#linear-gradient-9);}.cls-20{fill:url(#linear-gradient-10);}.cls-21{fill:url(#linear-gradient-11);}.cls-22{fill:url(#linear-gradient-12);}.cls-23{fill:#d75227;}</style><clipPath id="clip-path" transform="translate(-160.84 -290.82)"><path class="cls-1" d="M179.61,318.78v-7h0a11.71,11.71,0,0,1,.2-1.57l.23-.74,0-.05,0-.05,0-.09h0l0-.12v0l.26-.5h0l.08-.12h0l.14-.22h0l.13-.2v0l.07-.09h0l.08-.11h0l0-.05h0l.09-.11h0l.06-.08.1-.11h0l.06-.07h0l.19-.2h0l.06-.07h0l.07-.07.11-.1h0l.1-.09h0l.05,0h0l.11-.09h0l.09-.08h0l.19-.14h0l.21-.14h0l.12-.07h0l.5-.26.14-.07h0l.09,0,.09,0,.7-.23h0a6.06,6.06,0,0,1,1.53-.2H322.05v13.31H335V292.16H185.79c-10.53,0-19.12,8.84-19.13,19.65h0v7Z"/></clipPath><linearGradient id="linear-gradient" x1="-2392.17" y1="953.05" x2="-2362.48" y2="953.05" gradientTransform="matrix(0.19, 0.36, -0.68, 0.35, 1255.51, 531.26)" gradientUnits="userSpaceOnUse"><stop offset="0" stop-color="#737373"/><stop offset="1" stop-color="#333"/></linearGradient><linearGradient id="linear-gradient-2" x1="-2095.81" y1="2492.18" x2="-2066.24" y2="2492.18" gradientTransform="matrix(-0.19, 0.36, -0.55, -0.29, 995.99, 1475.72)" xlink:href="#linear-gradient"/><clipPath id="clip-path-2" transform="translate(-160.84 -290.82)"><path class="cls-1" d="M322.05,438.54v7h0a13.73,13.73,0,0,1-.2,1.57l-.23.74,0,.05,0,.05,0,.09h0l-.05.11,0,0-.26.5h0l-.07.12h0L321,449h0l-.13.19,0,0-.07.09h0l-.08.11h0l0,.05h0l-.09.11h0l-.07.08-.1.11h0l-.07.07h0l-.19.2h0l-.07.07h0l-.07.06-.11.1h0l-.11.1h0l0,0h0l-.11.08h0l-.1.07h0l-.2.14h0l-.21.15h0L319,451h0l-.49.26-.14.07h0l-.09,0-.1,0-.69.23h0a6.08,6.08,0,0,1-1.54.2H179.61V438.54h-13v26.62H315.87c10.53,0,19.12-8.83,19.12-19.65h0v-7Z"/></clipPath><linearGradient id="linear-gradient-3" x1="1941.55" y1="2058.58" x2="1971.23" y2="2058.58" gradientTransform="matrix(-0.19, -0.36, 0.68, -0.35, -1011.91, 1583.97)" xlink:href="#linear-gradient"/><linearGradient id="linear-gradient-4" x1="2097.04" y1="956.37" x2="2126.61" y2="956.37" gradientTransform="matrix(0.19, -0.36, 0.55, 0.29, -752.39, 639.51)" xlink:href="#linear-gradient"/><clipPath id="clip-path-3" transform="translate(-160.84 -290.82)"><rect class="cls-1" x="179.61" y="345.39" width="49.8" height="13.31"/></clipPath><linearGradient id="linear-gradient-5" x1="2959.37" y1="2525.34" x2="3014.14" y2="2525.34" gradientTransform="matrix(-1.52, -1.02, 3.14, 1.52, -3343.46, -725.41)" gradientUnits="userSpaceOnUse"><stop offset="0.11" stop-color="#58595b"/><stop offset="1"/></linearGradient><clipPath id="clip-path-4" transform="translate(-160.84 -290.82)"><rect class="cls-1" x="272.24" y="345.39" width="49.8" height="13.31"/></clipPath><linearGradient id="linear-gradient-6" x1="2966.18" y1="2529.91" x2="3020.95" y2="2529.91" gradientTransform="matrix(1.52, -1.02, -3.14, 1.52, 3527.44, -725.41)" xlink:href="#linear-gradient-5"/><clipPath id="clip-path-5" transform="translate(-160.84 -290.82)"><rect class="cls-1" x="272.24" y="398.62" width="49.8" height="13.31"/></clipPath><linearGradient id="linear-gradient-7" x1="-2425.64" y1="-62.97" x2="-2370.87" y2="-62.97" gradientTransform="matrix(1.52, 1.02, -3.14, -1.52, 3587.06, 2467.55)" xlink:href="#linear-gradient-5"/><clipPath id="clip-path-6" transform="translate(-160.84 -290.82)"><rect class="cls-1" x="179.61" y="398.62" width="49.8" height="13.31"/></clipPath><linearGradient id="linear-gradient-8" x1="-2634.7" y1="-203.49" x2="-2579.93" y2="-203.49" gradientTransform="matrix(-1.52, 1.02, 3.14, -1.52, -3283.84, 2467.55)" xlink:href="#linear-gradient-5"/><linearGradient id="linear-gradient-9" x1="5.82" y1="44.44" x2="68.57" y2="44.44" gradientUnits="userSpaceOnUse"><stop offset="0.24" stop-color="#a7a9ac"/><stop offset="1" stop-color="#404040"/></linearGradient><linearGradient id="linear-gradient-10" x1="61.82" y1="335.26" x2="124.57" y2="335.26" gradientTransform="matrix(-1, 0, 0, 1, 235.97, -290.82)" xlink:href="#linear-gradient-9"/><linearGradient id="linear-gradient-11" x1="230.3" y1="1971.74" x2="293.05" y2="1971.74" gradientTransform="translate(404.45 2102.98) rotate(180)" xlink:href="#linear-gradient-9"/><linearGradient id="linear-gradient-12" x1="-1.81" y1="1971.74" x2="60.94" y2="1971.74" gradientTransform="matrix(1, 0, 0, -1, 7.63, 2102.98)" xlink:href="#linear-gradient-9"/></defs><title>OPNsense__Icon_Logo</title><g class="cls-2"><rect class="cls-3" x="6.35" width="168.67" height="17.33"/><polygon class="cls-4" points="160.91 28.15 155.59 17.69 174.65 7.45 179.97 17.91 160.91 28.15"/><polygon class="cls-5" points="3.42 19.75 8.71 9.28 24.23 17.57 18.93 28.04 3.42 19.75"/></g><rect class="cls-6" x="31.71" y="27.96" width="116.54" height="13.31"/><rect class="cls-6" x="31.71" y="134.42" width="116.54" height="13.31"/><g class="cls-7"><rect class="cls-3" x="4.96" y="158.35" width="168.67" height="17.33"/><polygon class="cls-8" points="19.06 147.53 24.38 157.99 5.32 168.23 0 157.78 19.06 147.53"/><polygon class="cls-9" points="176.55 155.93 171.26 166.4 155.75 158.11 161.04 147.64 176.55 155.93"/></g><g class="cls-10"><rect class="cls-11" x="18.77" y="54.57" width="49.8" height="13.31"/><polygon class="cls-12" points="68.68 67.88 63.27 78.52 18.11 54.32 23.52 43.67 68.68 67.88"/></g><g class="cls-13"><rect class="cls-11" x="111.4" y="54.57" width="49.8" height="13.31"/><polygon class="cls-14" points="111.29 67.88 116.69 78.52 161.85 54.32 156.46 43.67 111.29 67.88"/></g><g class="cls-15"><rect class="cls-11" x="111.4" y="107.8" width="49.8" height="13.31"/><polygon class="cls-16" points="111.29 107.8 116.69 97.16 161.85 121.36 156.46 132.01 111.29 107.8"/></g><g class="cls-17"><rect class="cls-11" x="18.77" y="107.8" width="49.8" height="13.31"/><polygon class="cls-18" points="68.68 107.8 63.27 97.16 18.11 121.36 23.52 132.01 68.68 107.8"/></g><polygon class="cls-19" points="68.57 67.88 5.82 34.3 5.82 20.99 68.57 54.57 68.57 67.88"/><polygon class="cls-20" points="111.4 67.88 174.15 34.3 174.15 20.99 111.4 54.57 111.4 67.88"/><polygon class="cls-21" points="111.4 107.8 174.15 141.38 174.15 154.69 111.4 121.11 111.4 107.8"/><polygon class="cls-22" points="68.57 107.8 5.82 141.38 5.82 154.69 68.57 121.11 68.57 107.8"/><polygon class="cls-23" points="174.15 81.19 136.25 81.19 148.24 74.77 148.24 61.46 111.4 81.18 111.4 81.18 111.4 81.19 111.4 94.49 111.4 94.49 111.4 94.49 111.41 94.49 148.26 114.21 148.26 100.9 136.28 94.49 174.15 94.49 174.15 81.19"/><polygon class="cls-23" points="31.73 61.46 31.73 74.77 43.72 81.19 5.82 81.19 5.82 94.49 43.69 94.49 31.71 100.9 31.71 114.21 68.56 94.49 68.57 94.49 68.57 94.49 68.57 94.49 68.57 81.19 68.57 81.18 68.57 81.18 31.73 61.46"/></svg>