<?xml version="1.0" encoding="UTF-8"?>
<svg id="Laag_1" xmlns="http://www.w3.org/2000/svg" version="1.1" viewBox="0 0 148.6 21.7">
  <!-- Generator: Adobe Illustrator 29.0.1, SVG Export Plug-In . SVG Version: 2.1.0 Build 192)  -->
  <defs>
    <style>
      .st0 {
        fill: #c03e14;
      }
    </style>
  </defs>
  <g>
    <rect class="st0" x="63.1" y="4.7" width="4.7" height="12.2"/>
    <polygon class="st0" points="78 0 78 0 78 0 71.3 0 70.4 0 67.9 0 67.9 0 72.6 4.7 78 4.7 80.1 4.7 80.1 8.2 80.1 14.3 80.1 16.9 67.9 16.9 67.9 21.7 78 21.7 84.8 14.9 84.8 14.3 84.8 14.3 84.8 6.8 78 0"/>
    <g>
      <path class="st0" d="M100.8,13.8c-.3.2-1,.4-1.8.4-1.7,0-2.7-.9-2.7-2.4s1-2.4,2.4-2.4,2.5.9,2.2,2.8h-2.9c0,.3.5.6,1.1.6s1.2-.1,1.5-.3l.2,1.3ZM99.3,11.4c0-.3-.2-.6-.6-.6s-.6.3-.7.6h1.3Z"/>
      <path class="st0" d="M103.9,9.5c.8,0,1.3.2,1.6.3v1.4c-.5-.1-.8-.2-1.2-.2-.6,0-1,.3-1,.8s.4.8,1,.8.8,0,1.1-.2l.2,1.4c-.3.2-.9.3-1.6.3-1.5,0-2.5-1-2.5-2.4s1-2.4,2.5-2.4Z"/>
      <path class="st0" d="M106.1,8.2c0-.6.4-1,1-1s1,.4,1,1-.4,1-1,1-1-.4-1-1ZM106.2,14.1v-4.5h1.8v4.5h-1.8Z"/>
      <path class="st0" d="M111.3,11.4c.9.2,1.3.6,1.3,1.4s-.8,1.5-2,1.5-1.4-.1-1.9-.3l.2-1.4c.3.1.9.3,1.5.3s.6,0,.6-.2-.2-.1-.6-.2h-.3c-1-.2-1.5-.6-1.5-1.5s.8-1.6,2.2-1.6,1.3.1,1.6.2l-.2,1.4c-.2,0-.8-.2-1.3-.2s-.7,0-.7.2.2.1.8.2h.3Z"/>
      <path class="st0" d="M115.7,9.5c1.5,0,2.5,1,2.5,2.4s-1,2.4-2.5,2.4-2.5-1-2.5-2.4,1-2.4,2.5-2.4ZM115.7,12.7c.5,0,.8-.3.8-.9s-.3-.8-.8-.8-.8.3-.8.8.3.9.8.9Z"/>
      <path class="st0" d="M119.1,7.2c.5,0,1,.4,1,1s-.4,1-1,1-1-.4-1-1c0-.6.4-1,1-1ZM119.1,8.9c.4,0,.7-.3.7-.7s-.3-.7-.7-.7-.7.3-.7.7.3.7.7.7ZM119,8.7h-.2v-1h.4c.2,0,.4.1.4.4s0,.2-.2.3l.2.3h-.3l-.2-.3h-.1v.3ZM119,7.9v.3h.2c0,0,.1,0,.1-.1s0-.1-.1-.1h-.2Z"/>
      <path class="st0" d="M92.5,7.7h-2.9v4.9h1.9v-3.3h1c1,0,1.5.5,1.5,1.6s-.5,1.7-1.5,1.7h-1v1.5h1.1c2.1,0,3.3-1.1,3.3-3.2s-1.3-3.2-3.3-3.2Z"/>
    </g>
  </g>
  <g>
    <path class="st0" d="M3.1,8.1c1.8,0,3.2,1.3,3.2,3.1s-1.3,3-3.2,3-3.1-1.3-3.1-3,1.3-3.1,3.1-3.1ZM3.1,13.4c1.3,0,2.2-.9,2.2-2.2s-.9-2.2-2.2-2.2-2.2.9-2.2,2.2.9,2.2,2.2,2.2Z"/>
    <path class="st0" d="M8.4,12.3v1.8h-.9v-6h2.7c1.1,0,2.1.7,2.1,2.1s-1,2.1-2.1,2.1h-1.8ZM8.4,9v2.5h1.6c.7,0,1.3-.5,1.3-1.2s-.6-1.3-1.3-1.3h-1.6Z"/>
    <path class="st0" d="M14.2,14.2h-.9v-6h.9l3.8,4.5v-4.5h.9v6h-.9l-3.8-4.5v4.5Z"/>
    <path class="st0" d="M22.1,11.7c.9.2,1.3.5,1.3,1.3s-.7,1.3-1.7,1.3-1.2-.1-1.6-.3v-.8c.5.2,1.1.3,1.5.3s.9-.2.9-.5-.2-.4-.8-.5h-.6c-.7-.3-1.1-.7-1.1-1.4s.7-1.2,1.8-1.2,1.1.1,1.4.3v.8c-.4-.1-.9-.2-1.4-.2-.6,0-1,.2-1,.5s.2.4.7.5h.5Z"/>
    <path class="st0" d="M28.1,13.8c-.5.3-1,.4-1.6.4-1.4,0-2.4-.9-2.4-2.2s.9-2.2,2.2-2.2,2.3,1.1,2,2.5h-3.3c.2.7.7,1.1,1.5,1.1s.9-.1,1.5-.4v.8ZM27.5,11.7c0-.6-.5-1-1.2-1s-1.2.4-1.3,1h2.5Z"/>
    <path class="st0" d="M33.3,11.6v2.6h-.9v-2.4c0-.7-.4-1.1-1-1.1s-1.2.4-1.2,1.1v2.4h-.9v-4.2h.9v.5c.1-.2.5-.6,1.3-.6,1.2,0,1.8.7,1.8,1.7Z"/>
    <path class="st0" d="M36.3,11.7c.9.2,1.3.5,1.3,1.3s-.7,1.3-1.7,1.3-1.2-.1-1.6-.3v-.8c.5.2,1.1.3,1.5.3s.9-.2.9-.5-.2-.4-.8-.5h-.6c-.7-.3-1.1-.7-1.1-1.4s.7-1.2,1.8-1.2,1.1.1,1.4.3v.8c-.4-.1-.9-.2-1.4-.2-.6,0-1,.2-1,.5s.2.4.7.5h.5Z"/>
    <path class="st0" d="M42.3,13.8c-.5.3-1,.4-1.6.4-1.4,0-2.4-.9-2.4-2.2s.9-2.2,2.2-2.2,2.3,1.1,2,2.5h-3.3c.2.7.7,1.1,1.5,1.1s.9-.1,1.5-.4v.8ZM41.7,11.7c0-.6-.5-1-1.2-1s-1.2.4-1.3,1h2.5Z"/>
    <path class="st0" d="M45.6,8.5c0-.3.2-.5.5-.5s.5.2.5.5-.2.5-.5.5-.5-.2-.5-.5ZM45.7,14.2v-4.2h.9v4.2h-.9Z"/>
    <path class="st0" d="M49.6,11.7c.9.2,1.3.5,1.3,1.3s-.7,1.3-1.7,1.3-1.2-.1-1.6-.3v-.8c.5.2,1.1.3,1.5.3s.9-.2.9-.5-.2-.4-.8-.5h-.6c-.7-.3-1.1-.7-1.1-1.4s.7-1.2,1.8-1.2,1.1.1,1.4.3v.8c-.4-.1-.9-.2-1.4-.2-.6,0-1,.2-1,.5s.2.4.7.5h.5Z"/>
    <path class="st0" d="M53.8,12c0-1.3.9-2.2,2.1-2.2s1.2.3,1.5.7v-.6h.9v4.2h-.9v-.6c-.3.4-.8.7-1.5.7-1.2,0-2.1-.9-2.1-2.2ZM56,10.6c-.8,0-1.4.6-1.4,1.4s.5,1.4,1.4,1.4,1.4-.7,1.4-1.4-.6-1.4-1.4-1.4Z"/>
  </g>
  <g>
    <path class="st0" d="M123.7,13.6v.6h-.9v-6.2h.9v2.5c.3-.4.8-.7,1.5-.7,1.2,0,2.1.9,2.1,2.2s-.9,2.2-2.1,2.2-1.2-.3-1.5-.7ZM125.1,13.5c.8,0,1.4-.7,1.4-1.4s-.5-1.4-1.4-1.4-1.4.6-1.4,1.4.6,1.4,1.4,1.4Z"/>
    <path class="st0" d="M129.2,10.5c.2-.5.6-.7,1.1-.7s.6.1.6.1v.8c-.1,0-.3,0-.6,0-.5,0-1.1.2-1.1,1.2v2.3h-.9v-4.2h.9v.6Z"/>
    <path class="st0" d="M131.3,12c0-1.3.9-2.2,2.1-2.2s1.2.3,1.5.7v-.6h.9v4.2h-.9v-.6c-.3.4-.8.7-1.5.7-1.2,0-2.1-.9-2.1-2.2ZM133.5,10.6c-.8,0-1.4.6-1.4,1.4s.5,1.4,1.4,1.4,1.4-.7,1.4-1.4-.6-1.4-1.4-1.4Z"/>
    <path class="st0" d="M141,11.6v2.6h-.9v-2.4c0-.7-.4-1.1-1-1.1s-1.2.4-1.2,1.1v2.4h-.9v-4.2h.9v.5c.1-.2.5-.6,1.3-.6,1.2,0,1.8.7,1.8,1.7Z"/>
    <path class="st0" d="M142,12c0-1.3.9-2.2,2.1-2.2s1.2.3,1.5.7v-2.5h.9v6.2h-.9v-.6c-.3.4-.8.7-1.5.7-1.2,0-2.1-.9-2.1-2.2ZM144.2,10.6c-.8,0-1.4.6-1.4,1.4s.5,1.4,1.4,1.4,1.4-.7,1.4-1.4-.6-1.4-1.4-1.4Z"/>
    <path class="st0" d="M148.1,13.2c.3,0,.5.2.5.5s-.2.5-.5.5-.5-.2-.5-.5.2-.5.5-.5Z"/>
  </g>
</svg>