<?xml version="1.0" encoding="UTF-8"?>
<svg id="Laag_1" xmlns="http://www.w3.org/2000/svg" version="1.1" viewBox="0 0 288 85">
  <!-- Generator: Adobe Illustrator 29.1.0, SVG Export Plug-In . SVG Version: 2.1.0 Build 142)  -->
  <defs>
    <style>
      .st0 {
        fill: #fff;
      }

      .st1 {
        fill: #3a3a39;
      }
    </style>
  </defs>
  <g>
    <polygon class="st0" points="18.6 0 18.6 18.6 66.4 18.6 66.4 66.4 85 66.4 85 26.6 58.5 0 18.6 0"/>
    <polygon class="st0" points="66.4 85 66.4 66.4 18.6 66.4 18.6 18.6 0 18.6 0 58.5 26.6 85 66.4 85"/>
  </g>
  <g>
    <g>
      <path class="st0" d="M105.6,68.5c-1.2-.4-2.1-.9-2.1-2.2s1.1-2.5,3.1-2.5,1.8.2,2.5.5v1c-.8-.3-1.7-.5-2.5-.5-1.3,0-2,.5-2,1.4s.8,1.1,1.5,1.4l1.4.4c1.4.5,2.1,1.1,2.1,2.3s-1.2,2.5-3.1,2.5-2.2-.2-3-.6v-1c.8.3,2,.6,2.9.6s2.1-.5,2.1-1.5-.4-1.1-1.4-1.4l-1.5-.5h0Z"/>
      <path class="st0" d="M116.4,72.2c-.7.4-1.5.6-2.3.6-2.1,0-3.5-1.3-3.5-3.2s1.3-3.2,3.1-3.2,3.2,1.7,2.9,3.5h-5c.2,1.2,1.2,1.9,2.4,1.9s1.3,0,2.2-.6l.2.9h0ZM115.7,69.2c0-1-.8-1.8-1.9-1.8s-2,.7-2.1,1.8h4Z"/>
      <path class="st0" d="M121.2,66.4c.8,0,1.5.2,1.8.4v.9c-.5-.2-1.1-.4-1.8-.4-1.4,0-2.4.9-2.4,2.2s1,2.2,2.4,2.2,1.3-.2,1.8-.4l.2.9c-.5.2-1.3.4-1.9.4-2,0-3.4-1.3-3.4-3.2s1.4-3.2,3.4-3.2v.2Z"/>
      <path class="st0" d="M129,66.6h1v3.6c0,1.5-1.1,2.6-2.8,2.6s-2.8-1.1-2.8-2.6v-3.7h1v3.5c0,1.1.7,1.8,1.8,1.8s1.8-.7,1.8-1.8v-3.5h0Z"/>
      <path class="st0" d="M133,67.5c.3-.7.9-1,1.6-1s.7,0,.9.2v.9c-.3,0-.5-.2-.9-.2-.8,0-1.6.5-1.6,1.9v3.4h-1v-6.1h1s0,.9,0,.9Z"/>
      <path class="st0" d="M136.6,64.5c0-.4.3-.6.6-.6s.6.3.6.6-.3.6-.6.6-.6-.3-.6-.6ZM136.8,66.6h1v6.1h-1v-6.1Z"/>
      <path class="st0" d="M145.4,69v3.7h-1v-3.5c0-1.2-.6-1.8-1.7-1.8s-1.9.7-1.9,1.8v3.4h-1v-6.1h1v.9c.3-.6,1.1-1,2-1,1.6,0,2.6.9,2.6,2.5h0Z"/>
      <path class="st0" d="M150,72.8c-1.7,0-3.1-1.4-3.1-3.2s1.3-3.2,3.1-3.2,1.9.5,2.3,1.1v-1h1v5.7c0,1.8-1.2,3.1-3.4,3.1s-1.8-.2-2.4-.5l.2-.9c.7.3,1.5.5,2.2.5,1.4,0,2.4-.7,2.4-2.1v-.7c-.4.6-1.3,1.1-2.3,1.1h0ZM147.9,69.6c0,1.3.9,2.3,2.2,2.3s2.3-1,2.3-2.3-1-2.2-2.3-2.2-2.2,1-2.2,2.2Z"/>
      <path class="st0" d="M164,69v3.7h-1v-3.5c0-1.2-.6-1.8-1.7-1.8s-1.9.7-1.9,1.8v3.4h-1v-6.1h1v.9c.3-.6,1.1-1,2-1,1.6,0,2.6.9,2.6,2.5h0Z"/>
      <path class="st0" d="M171.3,72.2c-.7.4-1.5.6-2.3.6-2,0-3.5-1.3-3.5-3.2s1.3-3.2,3.1-3.2,3.2,1.7,2.9,3.5h-5c.2,1.2,1.2,1.9,2.4,1.9s1.3,0,2.2-.6l.2.9h0ZM170.6,69.2c0-1-.8-1.8-1.9-1.8s-2,.7-2.1,1.8h4Z"/>
      <path class="st0" d="M174.5,67.4v3.3c0,.8.4,1.1,1.1,1.1s.7,0,1-.2v.9c-.1,0-.7.2-1.1.2-1.2,0-2-.6-2-1.9v-3.5h-1.1v-.9h1.1v-2h1v2h1.9v.9h-1.9Z"/>
      <path class="st0" d="M182.4,66.6l1.7,5.1,1.5-5.1h1.1l-1.9,6.1h-1.4l-1.5-4.6-1.5,4.6h-1.4l-1.9-6.1h1.1l1.5,5.1,1.7-5.1h1.1-.1Z"/>
      <path class="st0" d="M190.6,66.4c1.9,0,3.2,1.4,3.2,3.2s-1.4,3.2-3.2,3.2-3.2-1.4-3.2-3.2,1.4-3.2,3.2-3.2ZM190.6,71.8c1.3,0,2.2-1,2.2-2.2s-.9-2.2-2.2-2.2-2.2,1-2.2,2.2.9,2.2,2.2,2.2Z"/>
      <path class="st0" d="M196.4,67.5c.3-.7.9-1,1.6-1s.7,0,.9.2v.9c-.3,0-.5-.2-.9-.2-.8,0-1.6.5-1.6,1.9v3.4h-1v-6.1h1s0,.9,0,.9Z"/>
      <path class="st0" d="M200.2,63.7h1v5.4h1.3l1.6-2.5h1.1l-2,3,2.3,3.1h-1.2l-2-2.7h-1.2v2.7h-1v-8.9h0Z"/>
      <path class="st0" d="M209.2,69.2c1.2.2,1.9.8,1.9,1.7s-.9,1.8-2.4,1.8-1.7-.2-2.3-.5v-.9c.7.3,1.5.5,2.2.5s1.5-.3,1.5-.9-.5-.8-1.3-.9l-.8-.2c-1-.2-1.7-.7-1.7-1.7s1-1.8,2.5-1.8,1.5,0,2,.3v.9c-.6-.2-1.3-.3-1.9-.3-1,0-1.5.3-1.5.9s.4.7,1.3.9h.6v.2Z"/>
      <path class="st0" d="M225.5,68.9v3.7h-1v-3.5c0-1.1-.6-1.8-1.7-1.8s-1.8.7-1.8,1.8v3.5h-1v-3.5c0-1.1-.6-1.8-1.6-1.8s-1.8.7-1.8,1.8v3.5h-1v-6.1h1v.9c.3-.6,1-1,2-1s1.9.5,2.2,1.3c.4-.8,1.2-1.3,2.2-1.3,1.6,0,2.5,1,2.5,2.5h0Z"/>
      <path class="st0" d="M233.5,72.7h-1v-1c-.5.7-1.3,1.1-2.3,1.1-1.7,0-3.1-1.4-3.1-3.2s1.3-3.2,3.1-3.2,1.9.5,2.3,1.1v-1h1v6.1h0ZM228,69.6c0,1.3.9,2.3,2.2,2.3s2.3-1,2.3-2.3-1-2.2-2.3-2.2-2.2,1-2.2,2.2Z"/>
      <path class="st0" d="M240.5,71.7c-.5.6-1.3,1.1-2.3,1.1-1.7,0-3.1-1.4-3.1-3.2s1.3-3.2,3.1-3.2,1.9.5,2.3,1.1v-3.8h1v8.9h-1v-1h0ZM240.5,69.6c0-1.3-1-2.2-2.3-2.2s-2.2,1-2.2,2.2.9,2.3,2.2,2.3,2.3-1,2.3-2.3Z"/>
      <path class="st0" d="M248.8,72.2c-.7.4-1.5.6-2.3.6-2,0-3.5-1.3-3.5-3.2s1.3-3.2,3.1-3.2,3.2,1.7,2.9,3.5h-5c.2,1.2,1.2,1.9,2.4,1.9s1.3,0,2.2-.6l.2.9h0ZM248.2,69.2c0-1-.8-1.8-1.9-1.8s-2,.7-2.1,1.8h4Z"/>
      <path class="st0" d="M259,72.2c-.7.4-1.5.6-2.3.6-2.1,0-3.5-1.3-3.5-3.2s1.3-3.2,3.1-3.2,3.2,1.7,2.9,3.5h-5c.2,1.2,1.2,1.9,2.4,1.9s1.3,0,2.2-.6l.2.9h0ZM258.4,69.2c0-1-.8-1.8-1.9-1.8s-2,.7-2.1,1.8h4Z"/>
      <path class="st0" d="M266.9,72.7h-1v-1c-.5.7-1.3,1.1-2.3,1.1-1.7,0-3.1-1.4-3.1-3.2s1.3-3.2,3.1-3.2,1.9.5,2.3,1.1v-1h1v6.1h0ZM261.4,69.6c0,1.3.9,2.3,2.2,2.3s2.3-1,2.3-2.3-1-2.2-2.3-2.2-2.2,1-2.2,2.2Z"/>
      <path class="st0" d="M271.4,69.2c1.2.2,1.9.8,1.9,1.7s-.9,1.8-2.4,1.8-1.7-.2-2.3-.5v-.9c.7.3,1.5.5,2.2.5s1.5-.3,1.5-.9-.5-.8-1.3-.9l-.8-.2c-1-.2-1.7-.7-1.7-1.7s1-1.8,2.5-1.8,1.5,0,2,.3v.9c-.6-.2-1.3-.3-1.9-.3-1,0-1.5.3-1.5.9s.4.7,1.3.9h.6v.2Z"/>
      <path class="st0" d="M279,66.6h1.1l-2.9,6.9c-.5,1.2-1.1,1.9-2.3,1.9s-.9,0-1-.2v-.9c.3,0,.7.2,1,.2.7,0,1.1-.4,1.5-1.3v-.3c.1,0-2.5-6.3-2.5-6.3h1.1l2.1,5.1,2-5.1h-.1Z"/>
    </g>
    <g>
      <path class="st1" d="M140,48.7v6.8h-7.4v-25.2h12.7c6.3,0,9.8,4,9.8,9.1s-3.5,9.4-9.8,9.4h-5.3ZM140,36.4v6.2h4.1c2.2,0,3.6-1.1,3.6-3.1s-1.3-3.1-3.6-3.1c0,0-4.1,0-4.1,0Z"/>
      <path class="st1" d="M165,55.5h-7.2v-25.2h6l11.5,13.5v-13.5h7.2v25.2h-5.8l-11.7-13.3v13.3Z"/>
      <path class="st1" d="M195.6,44.6c3.7.6,5.3,2.3,5.3,5.4s-3,5.9-8,5.9-5.5-.4-7.4-1.1l.6-5.3c1.2.4,3.7,1.1,6,1.1s2.4-.2,2.4-.6-.6-.5-2.2-.8l-1.2-.2c-4-.6-5.8-2.2-5.8-5.5s3.2-6.1,8.6-6.1,5,.5,6.3.9l-.7,5.4c-.9-.4-3.3-.8-5-.8s-2.8.2-2.8.7.8.5,3,.8l1.2.2h-.3Z"/>
      <path class="st1" d="M220.3,54.3c-1.3.7-3.9,1.6-6.9,1.6-6.7,0-10.6-3.7-10.6-9.3s3.7-9.2,9.4-9.2,9.7,3.4,8.6,10.8h-11.3c.1,1.4,2.1,2.2,4.3,2.2s4.6-.5,5.8-1.1l.8,5h-.1ZM214.5,44.8c0-1.1-.9-2.3-2.4-2.3s-2.5,1.1-2.7,2.3h5.1Z"/>
      <path class="st1" d="M242.1,43.5v11.9h-7.1v-9.8c0-1.3-.9-2.1-2.2-2.1s-2.2.9-2.2,2.1v9.8h-7.1v-17.8h6.5l.2,1.7c1-1.2,3-2.1,5.5-2.1,3.8,0,6.4,2.5,6.4,6.2h0Z"/>
      <path class="st1" d="M255,44.6c3.7.6,5.3,2.3,5.3,5.4s-3,5.9-8,5.9-5.5-.4-7.4-1.1l.6-5.3c1.2.4,3.7,1.1,6,1.1s2.4-.2,2.4-.6-.6-.5-2.2-.8l-1.2-.2c-4-.6-5.8-2.2-5.8-5.5s3.2-6.1,8.6-6.1,5,.5,6.3.9l-.7,5.4c-.9-.4-3.3-.8-5-.8s-2.8.2-2.8.7.8.5,3,.8l1.2.2h-.3Z"/>
      <path class="st1" d="M279.7,54.3c-1.3.7-3.9,1.6-6.9,1.6-6.7,0-10.6-3.7-10.6-9.3s3.7-9.2,9.4-9.2,9.7,3.4,8.6,10.8h-11.3c.1,1.4,2.1,2.2,4.3,2.2s4.6-.5,5.8-1.1l.8,5h0ZM273.9,44.8c0-1.1-.9-2.3-2.4-2.3s-2.5,1.1-2.7,2.3h5.1Z"/>
      <path class="st1" d="M284.1,28.3c2.1,0,3.8,1.6,3.8,3.8s-1.7,3.8-3.8,3.8-3.8-1.6-3.8-3.8,1.7-3.8,3.8-3.8ZM284.1,35c1.6,0,2.9-1.1,2.9-2.8s-1.3-2.9-2.9-2.9-2.8,1.2-2.8,2.9,1.2,2.8,2.8,2.8ZM283.5,34.1h-1v-3.9h1.8c.8,0,1.4.6,1.4,1.4s-.3,1-.7,1.2l1,1.3h-1.2l-.8-1.1h-.6v1.1h.1ZM283.5,31v1.1h.7c.3,0,.6-.2.6-.5s-.2-.5-.6-.5h-.7Z"/>
      <path class="st1" d="M116.3,29.9c-1.1,0-2.1,0-3,.3v7.1h-9.3c-.7,1.6-1.1,3.5-1.1,5.5,0,7.7,5.5,13,13.5,13s13.4-5.3,13.4-13-5.5-13-13.4-13h0ZM116.4,49.3c-3.6,0-6-2.6-6-6.4s2.4-6.3,6-6.3,5.9,2.6,5.9,6.3-2.4,6.4-5.9,6.4Z"/>
    </g>
  </g>
</svg>